<?xml version="1.0"?>
<svg xmlns="http://www.w3.org/2000/svg" xmlns:xlink="http://www.w3.org/1999/xlink" version="1.1" id="Capa_1" x="0px" y="0px" viewBox="0 0 50.5 50.5" style="enable-background:new 0 0 50.5 50.5;" xml:space="preserve" width="512px" height="512px"><g><g>
	<path d="M35.834,0H14.667C11.405,0,8.75,2.654,8.75,5.917v38.667c0,3.262,2.654,5.916,5.917,5.916h21.167   c3.262,0,5.916-2.654,5.916-5.916V5.917C41.75,2.654,39.095,0,35.834,0z M39.75,44.584c0,2.159-1.757,3.916-3.916,3.916H14.667   c-2.16,0-3.917-1.757-3.917-3.916V5.917C10.75,3.757,12.507,2,14.667,2h21.167c2.159,0,3.916,1.757,3.916,3.917V44.584z" data-original="#000000" class="active-path" data-old_color="#000000" fill="#227DEB"/>
	<path d="M35.596,4.999H14.905c-0.552,0-1,0.447-1,1v15c0,0.553,0.448,1,1,1h20.692c0.553,0,1-0.447,1-1v-15   C36.596,5.446,36.149,4.999,35.596,4.999z M34.596,19.999H15.905v-13h18.692V19.999z" data-original="#000000" class="active-path" data-old_color="#000000" fill="#227DEB"/>
	<path d="M25.25,25.334c-1.905,0-3.774,0.508-5.405,1.469c-0.476,0.28-0.635,0.893-0.354,1.369c0.281,0.476,0.894,0.635,1.369,0.354   c1.324-0.779,2.842-1.191,4.39-1.191c4.779,0,8.667,3.888,8.667,8.666c0,4.779-3.888,8.667-8.667,8.667S16.584,40.779,16.584,36   c0-1.482,0.38-2.944,1.1-4.229c0.27-0.481,0.098-1.091-0.384-1.36c-0.482-0.271-1.091-0.1-1.361,0.384   c-0.886,1.581-1.354,3.382-1.354,5.205c0,5.882,4.785,10.667,10.667,10.667S35.917,41.882,35.917,36   C35.917,30.119,31.132,25.334,25.25,25.334z" data-original="#000000" class="active-path" data-old_color="#000000" fill="#227DEB"/>
	<path d="M25.25,32.334c2.022,0,3.667,1.645,3.667,3.666c0,0.553,0.447,1,1,1s1-0.447,1-1c0-3.124-2.542-5.666-5.667-5.666   S19.584,32.876,19.584,36c0,3.125,2.542,5.667,5.667,5.667c1.012,0,2.004-0.271,2.872-0.781c0.476-0.28,0.634-0.894,0.354-1.369   c-0.281-0.477-0.894-0.634-1.369-0.354c-0.56,0.33-1.201,0.504-1.856,0.504c-2.021,0-3.667-1.645-3.667-3.667   C21.584,33.979,23.229,32.334,25.25,32.334z" data-original="#000000" class="active-path" data-old_color="#000000" fill="#227DEB"/>
</g></g> </svg>
