<?xml version="1.0"?>
<svg xmlns="http://www.w3.org/2000/svg" xmlns:xlink="http://www.w3.org/1999/xlink" version="1.1" id="Capa_1" x="0px" y="0px" width="512px" height="512px" viewBox="0 0 439.875 439.875" style="enable-background:new 0 0 439.875 439.875;" xml:space="preserve"><g><g>
	<g>
		<circle cx="248.625" cy="315.562" r="9.562" data-original="#000000" class="active-path" data-old_color="#000000" fill="#227DEB"/>
		<circle cx="267.75" cy="277.312" r="9.562" data-original="#000000" class="active-path" data-old_color="#000000" fill="#227DEB"/>
		<path d="M267.75,229.5c-21.037,0-40.162,5.737-55.462,15.3c-11.475-43.987-30.6-72.675-30.6-72.675v-38.25    c0-38.25,19.125-57.375,19.125-86.062C200.812,26.775,181.688,0,143.438,0S86.062,26.775,86.062,47.812    c0,28.688,19.125,47.812,19.125,86.062v38.25c0,0-38.25,57.375-38.25,133.875s38.25,133.875,38.25,133.875h76.5    c0,0,7.65-9.562,15.3-28.688c19.125,17.213,43.987,28.688,70.763,28.688c57.375,0,105.188-47.812,105.188-105.188    S325.125,229.5,267.75,229.5z M143.438,19.125c19.125,0,38.25,7.65,38.25,28.688c0,24.862-13.388,34.425-17.212,66.938h-40.163    c-5.737-32.513-19.125-42.075-19.125-66.938C105.188,26.775,124.312,19.125,143.438,19.125z M162.562,133.875v38.25h-38.25v-38.25    H162.562z M170.212,420.75h-53.55c0,0-30.6-47.812-30.6-114.75c0-53.55,19.125-93.713,30.6-114.75h53.55    c7.65,13.388,19.125,36.338,24.863,66.938c-21.038,19.125-32.513,45.9-32.513,76.5c0,22.95,7.65,43.987,19.125,61.2    C175.95,411.188,170.212,420.75,170.212,420.75z M267.75,420.75c-47.812,0-86.062-38.25-86.062-86.062s38.25-86.062,86.062-86.062    s86.062,38.25,86.062,86.062S315.562,420.75,267.75,420.75z" data-original="#000000" class="active-path" data-old_color="#000000" fill="#227DEB"/>
		<circle cx="286.875" cy="315.562" r="9.562" data-original="#000000" class="active-path" data-old_color="#000000" fill="#227DEB"/>
	</g>
</g></g> </svg>
