<?xml version="1.0"?>
<svg xmlns="http://www.w3.org/2000/svg" xmlns:xlink="http://www.w3.org/1999/xlink" version="1.1" id="Capa_1" x="0px" y="0px" viewBox="0 0 512 512" style="enable-background:new 0 0 512 512;" xml:space="preserve" width="512px" height="512px"><g><g>
	<g>
		<path d="M332.917,171.823C327.229,166.646,320.771,160.771,320,160c0-11.609,14.943-36.1,26.267-54.484l52.358-20.943    c4.958-1.979,7.688-7.323,6.396-12.49c-1.917-7.604-12-46.156-24.146-58.292C367.75,0.667,336.75,0,330.667,0    c-2.833,0-5.542,1.125-7.542,3.125c-11,11-44.5,39.542-67.125,39.542c-22.563,0-56.104-28.552-67.125-39.542    c-2-2-4.708-3.125-7.542-3.125c-6.083,0-37.083,0.667-50.208,13.792c-12.146,12.135-22.229,50.688-24.146,58.292    c-1.292,5.167,1.438,10.51,6.396,12.49l52.358,20.943c11.323,18.384,26.272,42.845,26.517,53.005    c-1.021,2.25-7.479,8.125-13.167,13.302C144.646,203.188,64,276.635,64,480c0,5.896,4.771,10.667,10.667,10.667    c44.104,0,65.521,5.042,88.229,10.385C185.771,506.438,209.438,512,256,512s70.229-5.563,93.104-10.948    c22.708-5.344,44.125-10.385,88.229-10.385c5.896,0,10.667-4.771,10.667-10.667C448,276.635,367.354,203.188,332.917,171.823z     M344.229,480.281c-22.708,5.344-44.125,10.385-88.229,10.385s-65.521-5.042-88.229-10.385    c-21.042-4.948-42.75-10.063-82.354-10.844C88,283.625,159,218.969,193.458,187.594c12.396-11.292,19.875-18.104,19.875-27.594    c0-17.896-16.042-43.917-30.167-66.865c-5.479-8.875-10.5-17-13.625-23.24c-2.646-5.281-9.021-7.385-14.313-4.771    c-4.185,2.092-6.264,6.551-5.68,10.941l-19.466-7.785c4.875-17.021,11.646-34.917,16.125-39.406    c4.333-4.333,19.479-6.896,30.917-7.438C188.729,32.375,224.958,64,256,64s67.271-31.625,78.875-42.563    c11.438,0.542,26.583,3.104,30.917,7.438c4.479,4.49,11.25,22.385,16.125,39.406l-19.466,7.785    c0.585-4.391-1.495-8.849-5.68-10.941c-5.271-2.594-11.667-0.51-14.313,4.771c-3.125,6.24-8.146,14.365-13.625,23.24    c-14.125,22.948-30.167,48.969-30.167,66.865c0,9.49,7.479,16.302,19.875,27.594C353,218.969,424,283.625,426.583,469.438    C386.979,470.219,365.271,475.333,344.229,480.281z" data-original="#000000" class="active-path" data-old_color="#000000" fill="#227DEB"/>
	</g>
</g></g> </svg>
