<svg width="48" height="48" xmlns="http://www.w3.org/2000/svg">

 <g>
  <title>background</title>
  <rect fill="none" id="canvas_background" height="402" width="582" y="-1" x="-1"/>
 </g>
 <g>
  <title>Layer 1</title>
  <path stroke-miterlimit="10" stroke-linejoin="round" stroke-linecap="round" stroke-width="2.7" stroke="#6b6666" fill="none" id="svg_2" d="m12.27063,25.74658l11.30768,11.30769c0.23524,0.23524 0.61667,0.23517 0.85183,-0.00016l11.29923,-11.30753l0.83566,-0.82704c1.61101,-1.61101 2.41221,-3.74754 2.41221,-5.86684c0,-2.12791 -0.8012,-4.25583 -2.41221,-5.86684c-3.22202,-3.22202 -8.50304,-3.22202 -11.73368,0l-0.82704,0.83566l-0.83566,-0.83566c-3.22202,-3.22202 -8.50304,-3.22202 -11.72506,0c-1.61963,1.61101 -2.42082,3.73892 -2.42082,5.86684c0,2.1193 0.8012,4.25583 2.42082,5.86684l0.82704,0.82704l11.30768,11.30769c0.23524,0.23524 0.61667,0.23517 0.85183,-0.00016l11.29923,-11.30753" class="st1"/>
 </g>
</svg>