<svg width="512" height="512" xmlns="http://www.w3.org/2000/svg">

 <g>
  <title>background</title>
  <rect fill="none" id="canvas_background" height="402" width="582" y="-1" x="-1"/>
 </g>
 <g>
  <title>Layer 1</title>
  <path stroke-miterlimit="10" stroke-linejoin="round" stroke-linecap="round" stroke-width="39" stroke="#57aaf7" fill="none" id="svg_2" d="m120.2,165.6c0.4,-5 0.9,-10.1 1.3,-15.1c0.1,-1.1 0.1,-2.3 0.3,-3.4c1,-7 4.9,-10.5 12.1,-10.6c13.4,-0.1 26.7,0 40.1,0c1.5,0 3,0 4.6,0c0.6,-11.9 2.9,-22.9 8.2,-33.1c12.4,-23.8 31.8,-37.8 58.2,-42.2c1.1,-0.2 2.2,-0.5 3.3,-0.8c5.1,0 10.2,0 15.3,0c5.5,1.3 11.2,2.2 16.6,4c31.1,10.7 50.8,36.8 52.9,69.7c0,0.6 0.2,1.2 0.3,2.4c1.4,0 2.8,0 4.1,0c13.2,0 26.5,0 39.7,0c8.2,0 12.2,3.6 13,11.7c2.7,30 5.3,60.1 7.9,90.1c2.7,30.8 5.5,61.5 8.3,92.3" class="st0"/>
  <path stroke-miterlimit="10" stroke-linejoin="round" stroke-linecap="round" stroke-width="39" stroke="#57aaf7" fill="none" id="svg_3" d="m409.6,364.3c1.1,11.2 2.2,22.5 2.7,33.8c0.8,18 -7.7,31.8 -22,42.1c-11.3,8.1 -24.2,11.4 -38.1,11.4c-31.3,0 -62.6,0 -93.9,0" class="st0"/>
  <path stroke="#57aaf7" stroke-miterlimit="10" stroke-linejoin="round" stroke-linecap="round" stroke-width="39" fill="none" id="svg_4" d="m214.437392,451.5c-32.080012,0 72.180028,0 40.100016,0" class="st0"/>
  <path stroke-miterlimit="10" stroke-linejoin="round" stroke-linecap="round" stroke-width="39" stroke="#57aaf7" fill="none" id="svg_5" d="m212.3,451.5c-3.4,0 -6.8,0 -10.2,0c-15.7,0 -31.3,0.5 -47,-0.2c-19.8,-0.8 -36.1,-9 -47.6,-25.6c-7.9,-11.4 -8.7,-24.2 -7.3,-37.6c2.9,-27.7 5.1,-55.5 7.5,-83.3c2.4,-27.3 4.9,-54.5 7.3,-81.8c0.9,-9.9 1.8,-19.7 2.6,-29.6" class="st0"/>
  <line transform="rotate(-2 119.59803771972713,174.50080871582048) " stroke="#57aaf7" stroke-linecap="round" stroke-linejoin="round" id="svg_8" y2="192.134519" x2="117.523487" y1="156.867096" x1="121.672595" fill-opacity="null" stroke-width="39" fill="none"/>
  <line transform="rotate(-5 407.9610900878918,343.0584716796877) " stroke="#57aaf7" stroke-linecap="round" stroke-linejoin="round" id="svg_9" y2="360.173554" x2="407.961084" y1="325.943405" x1="407.961084" fill-opacity="null" stroke-width="39" fill="none"/>
 </g>
</svg>