<svg width="48" height="48" xmlns="http://www.w3.org/2000/svg">

 <g>
  <title>background</title>
  <rect fill="none" id="canvas_background" height="402" width="582" y="-1" x="-1"/>
 </g>
 <g>
  <title>Layer 1</title>
  <path id="svg_6" fill="none" stroke="#000000" stroke-width="2.1" stroke-linecap="round" stroke-linejoin="round" stroke-miterlimit="10" d="m34.3,23.973094l0,9.64804c0,0.54165 -0.43909,0.98074 -0.98075,0.98074l-7.23925,0l0,-4.92276c0,-0.27 -0.05,-0.53 -0.15,-0.77c-0.1,-0.26 -0.26,-0.5 -0.46,-0.7c-0.37,-0.38 -0.89,-0.61 -1.47,-0.61c-0.88,0 -1.63,0.54 -1.93,1.31c-0.1,0.24 -0.15,0.5 -0.15,0.77l0,4.92276l-7.23925,0c-0.54165,0 -0.98075,-0.43909 -0.98075,-0.98074l0,-9.64803c0,-0.43618 0.17327,-0.85449 0.4817,-1.16291l9.12481,-9.12481c0.38301,-0.38301 1.00398,-0.38301 1.38699,0l9.12481,9.12481c0.30842,0.30841 0.48169,0.72672 0.48169,1.1629z"/>
 </g>
</svg>