<svg width="48" height="48" xmlns="http://www.w3.org/2000/svg">

 <g>
  <title>background</title>
  <rect fill="none" id="canvas_background" height="402" width="582" y="-1" x="-1"/>
 </g>
 <g>
  <title stroke="#000000">Layer 1</title>
  <path stroke-miterlimit="10" stroke-linejoin="round" stroke-linecap="round" stroke-width="2.3" stroke="#000000" fill="none" id="svg_6" d="m30.37337,33.9599l-5.96166,-8.79194c-0.19733,-0.29102 -0.62609,-0.29102 -0.82342,0l-5.96166,8.79194c-0.27508,0.40568 -0.90915,0.21098 -0.90915,-0.27917l0,-19.36238c0,-0.27473 0.22271,-0.49744 0.49744,-0.49744l13.57016,0c0.27473,0 0.49744,0.22271 0.49744,0.49744l0,19.36238c0,0.49015 -0.63407,0.68485 -0.90915,0.27917z" class="st1"/>
  <line stroke-linecap="round" stroke-linejoin="round" id="svg_14" y2="15.192561" x2="18.602946" y1="31.724078" x1="17.727748" fill-opacity="null" stroke-width="2.3" stroke="#000000" fill="none"/>
  <line stroke-linecap="round" stroke-linejoin="round" id="svg_15" y2="15.289805" x2="20.54783" y1="30.168171" x1="18.991923" fill-opacity="null" stroke-width="2.3" stroke="#000000" fill="none"/>
  <line stroke-linecap="round" stroke-linejoin="round" id="svg_16" y2="15.387049" x2="22.200982" y1="28.612263" x1="20.645074" fill-opacity="null" stroke-width="2.3" stroke="#000000" fill="none"/>
  <line stroke-linecap="round" stroke-linejoin="round" id="svg_17" y2="15.095316" x2="23.756889" y1="25.403204" x1="22.492715" fill-opacity="null" stroke-width="2.3" stroke="#000000" fill="none"/>
  <line stroke-linecap="round" stroke-linejoin="round" id="svg_18" y2="15.192561" x2="25.312797" y1="24.62525" x1="23.951378" fill-opacity="null" stroke-width="2.3" stroke="#000000" fill="none"/>
  <line transform="rotate(-0.9110409021377563 26.23661804199227,20.152015686035323) " stroke-linecap="round" stroke-linejoin="round" id="svg_19" y2="15.484293" x2="26.965949" y1="24.819738" x1="25.507285" fill-opacity="null" stroke-width="2.3" stroke="#000000" fill="none"/>
  <line stroke-linecap="round" stroke-linejoin="round" id="svg_20" y2="15.678782" x2="29.494298" y1="31.52959" x1="29.98052" fill-opacity="null" stroke-width="2.3" stroke="#000000" fill="none"/>
  <line stroke-linecap="round" stroke-linejoin="round" id="svg_21" y2="15.192561" x2="27.938391" y1="29.00124" x1="28.813589" fill-opacity="null" stroke-width="2.3" stroke="#000000" fill="none"/>
  <line stroke-linecap="round" stroke-linejoin="round" id="svg_22" y2="20.540993" x2="25.896262" y1="27.348088" x1="27.646658" fill-opacity="null" stroke-width="2.3" stroke="#000000" fill="none"/>
 </g>
</svg>