<?xml version="1.0" encoding="UTF-8" standalone="no"?>
<svg width="1452px" height="431px" viewBox="0 0 1452 431" version="1.1" xmlns="http://www.w3.org/2000/svg" xmlns:xlink="http://www.w3.org/1999/xlink">
    <!-- Generator: Sketch 39.1 (31720) - http://www.bohemiancoding.com/sketch -->
    <title>Appstore</title>
    <desc>Created with Sketch.</desc>
    <defs></defs>
    <g id="Page-1" stroke="none" stroke-width="1" fill="none" fill-rule="evenodd">
        <g id="App-Store-Badges" transform="translate(-474.000000, -673.000000)">
            <g id="Appstore" transform="translate(474.000000, 673.000000)">
                <rect id="backfround-copy" fill="#000000" x="0" y="0" width="1452" height="431" rx="40"></rect>
                <path d="M563.15332,275.552734 L587.557617,275.552734 L534.134766,127.588867 L509.422852,127.588867 L456,275.552734 L479.583984,275.552734 L493.22168,236.280273 L549.618164,236.280273 L563.15332,275.552734 Z M520.599609,154.454102 L522.342773,154.454102 L543.773438,217.00293 L499.066406,217.00293 L520.599609,154.454102 Z M652.266016,162.041992 C637.090235,162.041992 623.965235,169.629883 617.197657,182.344727 L615.557032,182.344727 L615.557032,163.887695 L594.331446,163.887695 L594.331446,311.749023 L616.377344,311.749023 L616.377344,258.633789 L618.120508,258.633789 C623.965235,270.425781 636.577539,277.398438 652.471094,277.398438 C680.669336,277.398438 698.613672,255.147461 698.613672,219.668945 C698.613672,184.19043 680.669336,162.041992 652.266016,162.041992 L652.266016,162.041992 Z M646.011133,257.608398 C627.554102,257.608398 615.967188,243.047852 615.967188,219.771484 C615.967188,196.392578 627.554102,181.832031 646.113672,181.832031 C664.775782,181.832031 675.952539,196.084961 675.952539,219.668945 C675.952539,243.355469 664.775782,257.608398 646.011133,257.608398 L646.011133,257.608398 Z M766.603321,162.041992 C751.42754,162.041992 738.30254,169.629883 731.534962,182.344727 L729.894337,182.344727 L729.894337,163.887695 L708.668751,163.887695 L708.668751,311.749023 L730.714649,311.749023 L730.714649,258.633789 L732.457813,258.633789 C738.30254,270.425781 750.914845,277.398438 766.808399,277.398438 C795.006641,277.398438 812.950977,255.147461 812.950977,219.668945 C812.950977,184.19043 795.006641,162.041992 766.603321,162.041992 L766.603321,162.041992 Z M760.348438,257.608398 C741.891407,257.608398 730.304493,243.047852 730.304493,219.771484 C730.304493,196.392578 741.891407,181.832031 760.450977,181.832031 C779.113087,181.832031 790.289845,196.084961 790.289845,219.668945 C790.289845,243.355469 779.113087,257.608398 760.348438,257.608398 L760.348438,257.608398 Z M859.618752,235.767578 C861.259377,262.222656 883.305275,279.141602 916.117775,279.141602 C951.186134,279.141602 973.129494,261.402344 973.129494,233.101562 C973.129494,210.850586 960.619728,198.545898 930.268166,191.470703 L913.964455,187.47168 C894.687111,182.959961 886.894142,176.910156 886.894142,166.348633 C886.894142,153.018555 898.993752,144.302734 917.143166,144.302734 C934.369728,144.302734 946.264259,152.813477 948.41758,166.451172 L970.771095,166.451172 C969.438087,141.53418 947.494728,124 917.450783,124 C885.150978,124 863.617775,141.53418 863.617775,167.886719 C863.617775,189.625 875.819923,202.544922 902.582619,208.799805 L921.654884,213.414062 C941.239845,218.02832 949.853127,224.795898 949.853127,236.075195 C949.853127,249.200195 936.31797,258.736328 917.860939,258.736328 C898.0709,258.736328 884.330666,249.81543 882.382423,235.767578 L859.618752,235.767578 Z M992.105471,136.817383 L992.105471,164.400391 L973.750978,164.400391 L973.750978,182.959961 L992.105471,182.959961 L992.105471,246.021484 C992.105471,267.554688 1001.84668,276.167969 1026.35352,276.167969 C1030.66016,276.167969 1034.65918,275.655273 1038.14551,275.040039 L1038.14551,256.685547 C1035.06934,256.993164 1033.32617,257.198242 1029.94238,257.198242 C1018.97071,257.198242 1014.15137,252.071289 1014.15137,240.381836 L1014.15137,182.959961 L1039.1709,182.959961 L1039.1709,164.400391 L1014.15137,164.400391 L1014.15137,136.817383 L992.105471,136.817383 Z M1093.83047,258.121094 C1074.65567,258.121094 1063.88906,244.073242 1063.88906,219.668945 C1063.88906,195.469727 1074.65567,181.319336 1093.83047,181.319336 C1112.90274,181.319336 1123.77188,195.469727 1123.77188,219.668945 C1123.77188,243.970703 1112.90274,258.121094 1093.83047,258.121094 L1093.83047,258.121094 Z M1093.83047,277.706055 C1126.43789,277.706055 1146.43301,255.865234 1146.43301,219.668945 C1146.43301,183.677734 1126.33535,161.734375 1093.83047,161.734375 C1061.22305,161.734375 1041.12539,183.677734 1041.12539,219.668945 C1041.12539,255.865234 1061.12051,277.706055 1093.83047,277.706055 L1093.83047,277.706055 Z M1156.48809,275.552734 L1178.53399,275.552734 L1178.53399,209.620117 C1178.53399,193.931641 1190.32598,183.370117 1206.93731,183.370117 C1210.62871,183.370117 1217.39629,184.087891 1219.13946,184.703125 L1219.13946,162.964844 C1216.78106,162.349609 1212.57696,162.041992 1209.39824,162.041992 C1194.8377,162.041992 1182.53301,170.040039 1179.3543,181.011719 L1177.71367,181.011719 L1177.71367,163.887695 L1156.48809,163.887695 L1156.48809,275.552734 Z M1268.77461,180.499023 C1285.07832,180.499023 1295.74239,191.880859 1296.25508,209.415039 L1239.8586,209.415039 C1241.08907,191.983398 1252.4709,180.499023 1268.77461,180.499023 L1268.77461,180.499023 Z M1296.15254,245.40625 C1292.05098,254.12207 1282.925,258.941406 1269.59492,258.941406 C1251.95821,258.941406 1240.57637,246.53418 1239.8586,226.949219 L1239.8586,225.71875 L1318.71114,225.71875 L1318.71114,218.02832 C1318.71114,182.959961 1299.94649,161.734375 1268.87715,161.734375 C1237.39766,161.734375 1217.40254,184.395508 1217.40254,220.079102 C1217.40254,255.762695 1236.9875,277.706055 1268.97969,277.706055 C1294.51192,277.706055 1312.35371,265.401367 1317.37813,245.40625 L1296.15254,245.40625 Z" id="App-Store" fill="#FFFFFF"></path>
                <g id="logo_apple" transform="translate(122.000000, 54.000000)" fill="#FFFFFF">
                    <path d="M193.340766,150.55423 C193.018956,114.788858 222.625537,97.3888881 223.979361,96.5788129 C207.211916,72.132299 181.22293,68.7921262 172.090165,68.5258002 C150.262524,66.2287378 129.089602,81.5868745 117.970488,81.5868745 C106.629437,81.5868745 89.5068896,68.7477385 71.0527122,69.1250338 C47.3053043,69.4912322 25.0892712,83.2403156 12.9048535,104.590789 C-12.2407663,148.124005 6.5130278,212.097746 30.6044403,247.286078 C42.655695,264.530691 56.737686,283.761653 75.1696694,283.084741 C93.2021638,282.352344 99.937994,271.588332 121.699053,271.588332 C143.260368,271.588332 149.585612,283.084741 168.383794,282.640864 C187.736822,282.352344 199.92124,265.340766 211.550811,247.940796 C225.477446,228.210473 231.070293,208.735379 231.292231,207.736657 C230.848355,207.592397 193.718062,193.42163 193.340766,150.55423" id="Fill-2"></path>
                    <path d="M158.830624,45.3776258 C168.529331,33.2486927 175.165289,16.7475733 173.323201,0.00232156273 C159.285597,0.623749061 141.73027,9.71212622 131.620977,21.5747333 C122.67686,32.0280316 114.687077,49.1616754 116.751104,65.2744027 C132.519827,66.4506762 148.710233,57.3179113 158.830624,45.3776258" id="Fill-3"></path>
                </g>
            </g>
        </g>
    </g>
</svg>