<?xml version="1.0"?>
<svg xmlns="http://www.w3.org/2000/svg" xmlns:xlink="http://www.w3.org/1999/xlink" version="1.1" id="Capa_1" x="0px" y="0px" viewBox="0 0 511.999 511.999" style="enable-background:new 0 0 511.999 511.999;" xml:space="preserve" width="512px" height="512px" class=""><g><g>
	<g>
		<path d="M461.088,497.068l-34.874-289.159c-0.497-4.112-4.234-7.032-8.343-6.547c-4.111,0.496-7.043,4.231-6.547,8.343    l34.649,287.298H66.026l45.857-380.229h52.633v13.356c-11.335,3.263-19.653,13.72-19.653,26.091    c0,14.972,12.181,27.153,27.152,27.153c14.971,0,27.153-12.182,27.153-27.153c0-12.371-8.319-22.828-19.654-26.091v-13.356    h152.973v13.436c-11.192,3.353-19.374,13.742-19.374,26.011c0,14.972,12.182,27.153,27.153,27.153    c14.971,0,27.152-12.182,27.152-27.153c0-12.473-8.456-23.001-19.934-26.17v-13.277h52.633l5.55,46.019    c0.496,4.112,4.231,7.031,8.343,6.547c4.111-0.496,7.043-4.231,6.547-8.343l-5.727-47.481    c-0.807-6.692-6.498-11.739-13.239-11.739h-54.107V91.483C347.484,41.039,306.445,0,256.001,0s-91.484,41.039-91.484,91.483    v10.294h-54.108c-6.741,0-12.433,5.047-13.239,11.738L50.911,497.069c-0.456,3.784,0.733,7.592,3.262,10.443    c2.529,2.851,6.166,4.487,9.977,4.487h383.698c3.812,0,7.448-1.636,9.977-4.487C460.356,504.66,461.544,500.854,461.088,497.068z     M339.986,158.292c4.142,0,7.499-3.356,7.499-7.499v-4.329c2.987,2.218,4.936,5.76,4.936,9.757    c0,6.703-5.453,12.156-12.155,12.156c-6.703,0-12.156-5.453-12.156-12.156c0-3.745,1.705-7.098,4.377-9.329v3.901    C332.487,154.936,335.843,158.292,339.986,158.292z M179.513,91.483c0-42.175,34.311-76.486,76.487-76.486    s76.487,34.311,76.487,76.486v10.294H179.513V91.483z M172.015,158.292c4.142,0,7.499-3.356,7.499-7.499v-4.119    c2.829,2.228,4.657,5.675,4.657,9.547c0,6.703-5.453,12.156-12.156,12.156c-6.702,0-12.155-5.453-12.155-12.156    c0-3.872,1.827-7.32,4.656-9.547v4.119C164.517,154.936,167.873,158.292,172.015,158.292z" data-original="#000000" class="active-path" data-old_color="#000000" fill="#FFFFFF"/>
	</g>
</g><g>
	<g>
		<path d="M326.626,257.723c-12.233-9.222-28.459-11.833-44.521-7.159c-10.68,3.105-19.718,9.825-26.105,19.142    c-6.388-9.317-15.426-16.037-26.105-19.142c-12.232-3.559-24.357-2.984-35.066,1.655c-3.8,1.646-5.546,6.062-3.899,9.861    c1.646,3.8,6.062,5.546,9.861,3.899c7.469-3.233,16.085-3.585,24.916-1.017c10.856,3.157,19.026,11.54,23.007,23.603    c1.014,3.073,3.884,5.149,7.121,5.149h0.334c3.236,0,6.107-2.076,7.121-5.149c3.979-12.062,12.15-20.444,23.007-23.603    c11.644-3.387,22.762-1.707,31.304,4.734c8.5,6.408,13.346,16.992,13.294,29.04c-0.08,19.061-11.471,39.264-30.469,54.043    c-13.865,10.783-30.095,18.041-44.294,23.711c-15.7-6.86-35.359-16.56-44.553-23.711c-18.999-14.777-30.39-34.98-30.47-54.045    c-0.004-0.749,0.012-1.49,0.045-2.223c0.187-4.134-3.013-7.642-7.15-7.831c-4.145-0.191-7.645,3.012-7.833,7.149    c-0.045,0.977-0.064,1.978-0.061,2.97c0.101,23.983,13.316,47.973,36.26,65.818c13.193,10.263,40.645,22.531,48.746,26.048    c1.597,0.691,3.28,1.039,4.968,1.039c1.559,0,3.117-0.296,4.609-0.889c15.406-6.116,33.268-14.012,48.937-26.198    c22.942-17.846,36.158-41.835,36.259-65.818C345.96,281.979,338.94,267.005,326.626,257.723z" data-original="#000000" class="active-path" data-old_color="#000000" fill="#FFFFFF"/>
	</g>
</g></g> </svg>
