<svg id="svg" version="1.1" width="400" height="400" xmlns="http://www.w3.org/2000/svg" xmlns:xlink="http://www.w3.org/1999/xlink" style="display: block;"><g id="svgg"><path id="path0" d="M57.380 0.352 C 57.171 0.545,56.341 0.914,55.535 1.171 C 53.626 1.781,52.301 3.146,50.277 6.590 C 49.369 8.136,48.530 9.490,48.413 9.600 C 48.024 9.965,46.754 12.189,46.529 12.900 C 46.407 13.285,46.148 13.600,45.953 13.600 C 45.759 13.600,45.600 13.793,45.600 14.028 C 45.600 14.263,45.060 15.241,44.400 16.200 C 43.740 17.159,43.200 18.035,43.200 18.145 C 43.200 18.500,40.612 22.595,40.300 22.733 C 40.135 22.807,40.000 23.029,40.000 23.228 C 40.000 23.615,36.753 29.247,34.543 32.694 C 33.804 33.845,33.200 34.893,33.200 35.022 C 33.200 35.151,32.660 36.041,32.000 37.000 C 31.340 37.959,30.800 38.859,30.800 39.000 C 30.800 39.141,30.260 40.041,29.600 41.000 C 28.940 41.959,28.400 42.859,28.400 43.000 C 28.400 43.141,27.860 44.041,27.200 45.000 C 26.540 45.959,26.000 46.937,26.000 47.172 C 26.000 47.407,25.841 47.600,25.647 47.600 C 25.452 47.600,25.193 47.915,25.071 48.300 C 24.854 48.985,23.596 51.204,23.200 51.600 C 23.090 51.710,22.758 52.230,22.462 52.755 C 22.167 53.280,21.608 54.270,21.220 54.955 C 20.832 55.640,19.319 58.149,17.857 60.531 C 16.396 62.913,15.200 64.951,15.200 65.059 C 15.200 65.167,14.660 66.041,14.000 67.000 C 13.340 67.959,12.800 68.859,12.800 69.000 C 12.800 69.141,12.260 70.041,11.600 71.000 C 10.940 71.959,10.400 72.922,10.400 73.139 C 10.400 73.356,10.265 73.593,10.100 73.667 C 9.724 73.834,8.425 75.964,8.129 76.900 C 8.007 77.285,7.748 77.600,7.553 77.600 C 7.359 77.600,7.200 77.784,7.200 78.008 C 7.200 78.232,6.711 79.177,6.113 80.108 C 4.334 82.879,3.239 84.851,1.956 87.600 C 1.288 89.030,0.575 90.513,0.371 90.895 C -0.124 91.822,-0.130 325.600,0.365 325.600 C 0.566 325.600,0.850 326.313,0.998 327.185 C 1.339 329.208,3.763 331.786,5.874 332.372 C 6.933 332.666,45.375 332.798,131.400 332.804 C 199.600 332.808,255.580 332.944,255.800 333.106 C 256.159 333.370,257.364 335.461,258.560 337.897 C 258.802 338.390,259.135 338.795,259.300 338.797 C 259.465 338.799,259.600 339.001,259.600 339.247 C 259.600 341.054,269.707 351.943,274.400 355.192 C 275.170 355.725,275.890 356.260,276.000 356.381 C 276.186 356.584,277.015 357.077,279.000 358.162 C 279.440 358.403,279.890 358.694,280.000 358.808 C 280.614 359.447,286.583 362.081,289.800 363.132 C 304.168 367.827,319.637 366.961,332.138 360.763 C 332.984 360.343,333.851 360.000,334.066 360.000 C 334.280 360.000,335.241 359.460,336.200 358.800 C 337.159 358.140,338.137 357.600,338.372 357.600 C 338.607 357.600,338.800 357.450,338.800 357.268 C 338.800 357.085,339.295 356.682,339.900 356.373 C 340.505 356.064,341.502 355.455,342.117 355.018 L 343.233 354.225 364.917 375.934 C 385.711 396.753,388.342 399.200,389.930 399.200 C 390.320 399.200,390.856 399.416,391.120 399.680 C 391.493 400.053,391.707 400.053,392.080 399.680 C 392.344 399.416,392.913 399.200,393.345 399.200 C 395.560 399.200,399.200 395.548,399.200 393.326 C 399.200 392.904,399.416 392.344,399.680 392.080 C 400.053 391.707,400.053 391.493,399.680 391.120 C 399.416 390.856,399.200 390.320,399.200 389.930 C 399.200 388.342,396.753 385.711,375.934 364.917 L 354.225 343.233 355.018 342.117 C 355.455 341.502,356.064 340.505,356.373 339.900 C 356.682 339.295,357.085 338.800,357.268 338.800 C 357.450 338.800,357.600 338.607,357.600 338.372 C 357.600 338.137,358.140 337.159,358.800 336.200 C 359.460 335.241,360.000 334.280,360.000 334.066 C 360.000 333.851,360.343 332.984,360.763 332.138 C 367.031 319.497,367.846 304.052,363.019 289.400 C 362.103 286.620,359.386 280.556,358.808 280.000 C 358.694 279.890,358.375 279.395,358.100 278.900 C 357.825 278.405,357.375 277.595,357.100 277.100 C 356.825 276.605,356.501 276.110,356.381 276.000 C 356.260 275.890,355.725 275.170,355.192 274.400 C 351.943 269.707,341.054 259.600,339.247 259.600 C 339.001 259.600,338.799 259.465,338.797 259.300 C 338.795 259.135,338.390 258.802,337.897 258.560 C 335.461 257.364,333.370 256.159,333.106 255.800 C 332.944 255.580,332.809 218.263,332.806 172.874 L 332.800 90.348 331.929 88.274 C 331.450 87.133,330.751 85.750,330.376 85.200 C 330.001 84.650,329.330 83.550,328.884 82.755 C 327.182 79.714,326.994 79.394,326.800 79.200 C 326.690 79.090,326.403 78.640,326.162 78.200 C 325.353 76.720,324.602 75.444,324.292 75.020 C 323.730 74.254,320.800 69.575,320.800 69.445 C 320.800 69.374,318.550 65.578,315.800 61.008 C 313.050 56.438,310.800 52.620,310.800 52.522 C 310.800 52.424,310.260 51.559,309.600 50.600 C 308.940 49.641,308.400 48.663,308.400 48.428 C 308.400 48.193,308.241 48.000,308.047 48.000 C 307.852 48.000,307.587 47.685,307.458 47.300 C 307.213 46.574,306.221 44.807,305.077 43.062 C 304.713 42.506,304.073 41.455,303.656 40.726 C 303.238 39.996,301.705 37.465,300.248 35.099 C 298.792 32.734,297.600 30.696,297.600 30.571 C 297.600 30.446,297.060 29.559,296.400 28.600 C 295.740 27.641,295.200 26.741,295.200 26.600 C 295.200 26.459,294.660 25.559,294.000 24.600 C 293.340 23.641,292.800 22.663,292.800 22.428 C 292.800 22.193,292.641 22.000,292.447 22.000 C 292.252 22.000,291.993 21.685,291.871 21.300 C 291.630 20.538,290.346 18.322,289.960 18.000 C 289.828 17.890,289.648 17.616,289.560 17.391 C 289.472 17.165,287.690 14.111,285.600 10.604 C 281.367 3.501,279.566 1.380,277.422 0.978 C 276.640 0.831,276.000 0.551,276.000 0.355 C 276.000 -0.113,57.887 -0.117,57.380 0.352 M131.466 18.500 C 131.351 19.655,131.065 21.545,130.829 22.700 C 129.799 27.744,129.548 29.093,129.357 30.600 C 129.246 31.480,128.996 32.560,128.802 33.000 C 128.608 33.440,128.356 34.430,128.241 35.200 C 128.036 36.580,127.546 39.178,126.787 42.900 C 125.791 47.790,125.545 49.112,125.357 50.600 C 125.246 51.480,124.996 52.560,124.802 53.000 C 124.608 53.440,124.356 54.430,124.241 55.200 C 124.127 55.970,123.853 57.500,123.632 58.600 C 123.412 59.700,123.044 61.590,122.816 62.800 C 122.587 64.010,122.240 65.810,122.044 66.800 C 121.848 67.790,121.404 70.130,121.057 72.000 C 119.633 79.683,118.758 83.379,118.292 83.675 C 117.743 84.024,24.397 84.127,23.492 83.780 C 22.781 83.507,23.024 81.955,23.941 80.915 C 24.795 79.944,25.989 77.991,26.271 77.100 C 26.393 76.715,26.652 76.400,26.847 76.400 C 27.041 76.400,27.200 76.221,27.200 76.002 C 27.200 75.783,29.830 71.238,33.045 65.902 C 36.260 60.566,39.249 55.570,39.688 54.800 C 40.126 54.030,40.627 53.220,40.800 53.000 C 40.973 52.780,41.477 51.950,41.920 51.155 C 43.531 48.262,43.804 47.796,44.000 47.600 C 44.110 47.490,44.425 46.995,44.700 46.500 C 45.756 44.599,46.211 43.826,46.512 43.420 C 47.037 42.713,52.000 34.298,52.000 34.115 C 52.000 34.021,52.540 33.159,53.200 32.200 C 53.860 31.241,54.400 30.278,54.400 30.061 C 54.400 29.844,54.535 29.607,54.700 29.533 C 55.076 29.366,56.375 27.236,56.671 26.300 C 56.793 25.915,57.052 25.600,57.247 25.600 C 57.441 25.600,57.600 25.407,57.600 25.172 C 57.600 24.937,58.140 23.959,58.800 23.000 C 59.460 22.041,60.000 21.141,60.000 21.000 C 60.000 20.859,60.540 19.959,61.200 19.000 C 61.860 18.041,62.400 17.063,62.400 16.828 C 62.400 16.527,72.705 16.400,97.037 16.400 L 131.674 16.400 131.466 18.500 M185.419 18.800 C 185.694 20.010,186.132 22.080,186.392 23.400 C 186.652 24.720,187.016 26.520,187.200 27.400 C 187.384 28.280,187.743 30.080,187.997 31.400 C 188.252 32.720,188.618 34.430,188.811 35.200 C 189.003 35.970,189.462 38.130,189.829 40.000 C 190.197 41.870,190.639 44.120,190.812 45.000 C 191.523 48.622,192.093 51.491,192.400 53.000 C 192.579 53.880,192.914 55.590,193.144 56.800 C 193.373 58.010,194.653 64.307,195.987 70.794 C 197.322 77.281,198.326 82.816,198.219 83.094 C 197.885 83.965,135.200 83.822,135.200 82.950 C 135.200 82.593,135.660 80.028,136.223 77.250 C 136.785 74.473,137.858 69.050,138.606 65.200 C 139.354 61.350,140.424 55.950,140.985 53.200 C 141.545 50.450,142.197 47.210,142.434 46.000 C 142.671 44.790,143.013 43.080,143.193 42.200 C 143.632 40.062,144.220 37.123,144.794 34.200 C 145.053 32.880,145.416 31.080,145.600 30.200 C 145.784 29.320,146.142 27.520,146.396 26.200 C 146.649 24.880,147.024 23.149,147.228 22.354 C 147.433 21.558,147.600 20.517,147.600 20.041 C 147.600 19.564,147.862 18.548,148.181 17.783 L 148.763 16.392 166.841 16.496 L 184.919 16.600 185.419 18.800 M272.942 20.224 C 274.184 22.327,275.200 24.217,275.200 24.424 C 275.200 24.631,275.350 24.800,275.532 24.800 C 275.715 24.800,276.115 25.295,276.420 25.900 C 276.726 26.505,277.476 27.752,278.088 28.672 C 278.699 29.592,279.200 30.416,279.200 30.504 C 279.200 30.592,281.990 35.307,285.400 40.981 C 288.810 46.655,291.600 51.456,291.600 51.649 C 291.600 51.842,291.759 52.000,291.953 52.000 C 292.148 52.000,292.407 52.315,292.529 52.700 C 292.746 53.385,294.004 55.604,294.400 56.000 C 294.587 56.187,295.122 57.098,296.162 59.000 C 296.403 59.440,296.690 59.890,296.800 60.000 C 296.910 60.110,297.260 60.650,297.579 61.200 C 297.897 61.750,299.652 64.688,301.479 67.729 C 303.305 70.771,304.800 73.327,304.800 73.409 C 304.800 73.492,305.340 74.360,306.000 75.338 C 306.660 76.316,307.200 77.315,307.200 77.558 C 307.200 77.801,307.359 78.000,307.553 78.000 C 307.748 78.000,308.007 78.315,308.129 78.700 C 308.410 79.586,309.692 81.721,310.139 82.048 C 310.326 82.184,310.414 82.634,310.334 83.048 C 310.173 83.881,216.530 84.453,215.230 83.628 C 214.917 83.429,214.410 81.947,214.104 80.333 C 213.798 78.720,213.370 76.500,213.153 75.400 C 212.937 74.300,212.668 72.680,212.557 71.800 C 212.446 70.920,212.196 69.840,212.002 69.400 C 211.808 68.960,211.556 67.970,211.441 67.200 C 211.236 65.820,210.746 63.222,209.987 59.500 C 209.566 57.435,209.036 54.788,208.383 51.500 C 208.154 50.345,207.873 48.770,207.759 48.000 C 207.644 47.230,207.392 46.240,207.198 45.800 C 207.004 45.360,206.757 44.280,206.649 43.400 C 206.540 42.520,206.252 40.900,206.008 39.800 C 205.580 37.875,205.167 35.838,204.427 32.000 C 203.846 28.986,203.146 25.492,202.763 23.700 C 201.978 20.025,201.647 18.162,201.624 17.300 L 201.600 16.400 236.142 16.400 L 270.684 16.400 272.942 20.224 M116.681 99.918 C 117.043 100.148,117.191 105.637,117.281 122.212 L 117.400 144.200 118.345 145.710 C 118.865 146.540,120.125 147.710,121.145 148.310 L 123.000 149.400 166.800 149.400 L 210.600 149.400 212.109 148.462 C 216.414 145.785,216.493 145.246,216.154 120.970 C 215.930 104.865,215.976 100.711,216.386 100.217 C 216.910 99.585,314.941 99.219,316.567 99.843 C 317.442 100.178,317.550 250.580,316.676 250.915 C 316.388 251.026,314.453 250.935,312.376 250.712 C 305.720 250.000,293.962 251.727,287.400 254.381 C 285.333 255.216,279.385 258.226,279.267 258.496 C 279.193 258.663,278.956 258.800,278.739 258.800 C 278.318 258.800,274.946 261.023,274.085 261.867 C 273.802 262.145,273.068 262.669,272.454 263.032 C 271.046 263.863,264.052 270.930,262.786 272.800 C 262.265 273.570,261.728 274.290,261.593 274.400 C 261.082 274.816,258.800 278.361,258.800 278.739 C 258.800 278.956,258.663 279.193,258.496 279.267 C 258.226 279.385,255.216 285.333,254.381 287.400 C 251.727 293.962,250.000 305.720,250.712 312.376 C 250.935 314.453,251.026 316.388,250.915 316.677 C 250.750 317.108,229.918 317.183,133.657 317.101 L 16.600 317.000 16.498 208.800 C 16.441 149.290,16.481 100.375,16.585 100.100 C 16.801 99.532,115.791 99.352,116.681 99.918 M200.000 116.802 L 200.000 133.605 166.700 133.502 L 133.400 133.400 133.296 116.700 L 133.191 100.000 166.596 100.000 L 200.000 100.000 200.000 116.802 M315.665 266.966 C 320.925 267.981,326.280 269.968,329.472 272.089 C 330.392 272.700,331.322 273.200,331.539 273.200 C 331.756 273.200,331.993 273.335,332.067 273.500 C 332.182 273.759,333.045 274.499,337.320 278.000 C 337.723 278.330,339.067 279.860,340.306 281.400 C 341.545 282.940,342.682 284.290,342.833 284.400 C 343.131 284.617,344.275 286.581,346.056 289.930 C 347.576 292.789,348.560 295.629,349.684 300.400 C 350.277 302.914,350.529 312.669,350.051 314.600 C 349.834 315.480,349.446 317.100,349.190 318.200 C 347.910 323.688,345.101 329.464,341.643 333.714 C 338.597 337.458,337.458 338.597,333.714 341.643 C 329.381 345.168,323.432 348.037,318.000 349.220 C 316.790 349.484,315.278 349.857,314.640 350.050 C 310.850 351.194,300.311 350.070,293.930 347.842 C 291.579 347.021,284.890 343.505,284.400 342.833 C 284.290 342.682,282.940 341.545,281.400 340.306 C 279.860 339.067,278.330 337.723,278.000 337.320 C 277.670 336.917,276.665 335.690,275.766 334.594 C 264.662 321.044,263.245 302.172,272.193 287.000 C 272.842 285.900,273.559 284.796,273.786 284.547 C 274.014 284.298,274.823 283.308,275.585 282.347 C 276.346 281.386,277.786 279.783,278.785 278.785 C 279.783 277.786,281.386 276.346,282.347 275.585 C 283.308 274.823,284.298 274.014,284.547 273.786 C 290.460 268.389,305.712 265.046,315.665 266.966 " stroke="none" fill="#585858" fill-rule="evenodd"></path><path id="path1" d="M54.800 0.861 C 52.511 2.175,51.877 3.019,46.585 11.800 C 43.800 16.420,41.165 20.785,40.728 21.500 C 40.292 22.215,40.096 22.800,40.293 22.800 C 40.490 22.800,40.951 22.215,41.317 21.500 C 42.248 19.679,43.955 16.797,44.847 15.538 C 45.261 14.954,45.600 14.279,45.600 14.038 C 45.600 13.797,45.759 13.600,45.953 13.600 C 46.148 13.600,46.407 13.285,46.529 12.900 C 46.754 12.189,48.024 9.965,48.413 9.600 C 48.530 9.490,49.369 8.136,50.277 6.590 C 52.301 3.146,53.626 1.781,55.535 1.171 C 57.300 0.608,58.083 -0.012,56.980 0.028 C 56.551 0.044,55.570 0.419,54.800 0.861 M276.000 0.355 C 276.000 0.551,276.640 0.831,277.422 0.978 C 279.566 1.380,281.367 3.501,285.600 10.604 C 287.690 14.111,289.472 17.165,289.560 17.391 C 289.648 17.616,289.828 17.890,289.960 18.000 C 290.346 18.322,291.630 20.538,291.871 21.300 C 291.993 21.685,292.252 22.000,292.447 22.000 C 292.641 22.000,292.800 22.193,292.800 22.428 C 292.800 22.663,293.340 23.641,294.000 24.600 C 294.660 25.559,295.200 26.459,295.200 26.600 C 295.200 26.741,295.740 27.641,296.400 28.600 C 297.060 29.559,297.600 30.446,297.600 30.571 C 297.600 30.696,298.792 32.734,300.248 35.099 C 301.705 37.465,303.238 39.996,303.656 40.726 C 304.073 41.455,304.713 42.506,305.077 43.062 C 306.221 44.807,307.213 46.574,307.458 47.300 C 307.587 47.685,307.852 48.000,308.047 48.000 C 308.241 48.000,308.400 48.193,308.400 48.428 C 308.400 48.663,308.940 49.641,309.600 50.600 C 310.260 51.559,310.800 52.424,310.800 52.522 C 310.800 52.620,313.050 56.438,315.800 61.008 C 318.550 65.578,320.800 69.374,320.800 69.445 C 320.800 69.577,323.745 74.277,324.292 75.017 C 325.001 75.976,326.065 77.849,326.271 78.500 C 326.393 78.885,326.667 79.200,326.879 79.200 C 327.092 79.200,326.912 78.615,326.480 77.900 C 326.049 77.185,323.268 72.550,320.301 67.600 C 317.334 62.650,311.706 53.290,307.794 46.800 C 303.883 40.310,300.376 34.460,300.002 33.800 C 299.628 33.140,296.664 28.190,293.416 22.800 C 290.168 17.410,287.149 12.370,286.708 11.600 C 286.267 10.830,285.567 9.722,285.153 9.138 C 284.739 8.554,284.400 7.973,284.400 7.846 C 284.400 7.383,281.563 3.196,280.694 2.378 C 279.159 0.931,276.000 -0.430,276.000 0.355 M62.400 16.828 C 62.400 17.063,61.860 18.041,61.200 19.000 C 60.540 19.959,60.000 20.859,60.000 21.000 C 60.000 21.141,59.460 22.041,58.800 23.000 C 58.140 23.959,57.600 24.937,57.600 25.172 C 57.600 25.407,57.441 25.600,57.247 25.600 C 57.052 25.600,56.793 25.915,56.671 26.300 C 56.375 27.236,55.076 29.366,54.700 29.533 C 54.535 29.607,54.400 29.844,54.400 30.061 C 54.400 30.278,53.860 31.241,53.200 32.200 C 52.540 33.159,52.000 34.021,52.000 34.115 C 52.000 34.298,47.037 42.713,46.512 43.420 C 46.211 43.826,45.756 44.599,44.700 46.500 C 44.425 46.995,44.110 47.490,44.000 47.600 C 43.804 47.796,43.531 48.262,41.920 51.155 C 41.477 51.950,40.973 52.780,40.800 53.000 C 40.627 53.220,40.126 54.030,39.688 54.800 C 39.249 55.570,36.249 60.584,33.021 65.942 C 29.792 71.301,27.232 75.765,27.330 75.863 C 27.491 76.025,31.200 70.139,31.200 69.721 C 31.200 69.624,31.740 68.759,32.400 67.800 C 33.060 66.841,33.600 65.936,33.600 65.790 C 33.600 65.643,33.939 65.046,34.353 64.462 C 34.767 63.878,35.465 62.770,35.903 62.000 C 36.341 61.230,40.440 54.390,45.011 46.800 C 49.583 39.210,53.635 32.460,54.016 31.800 C 55.899 28.536,61.763 18.895,62.460 17.915 L 63.254 16.800 97.227 16.800 L 131.200 16.800 131.200 17.624 C 131.200 18.077,130.210 23.384,129.000 29.418 C 126.747 40.655,126.601 41.532,127.072 41.061 C 127.319 40.814,127.663 39.094,128.241 35.200 C 128.356 34.430,128.608 33.440,128.802 33.000 C 128.996 32.560,129.246 31.480,129.357 30.600 C 129.548 29.093,129.799 27.744,130.829 22.700 C 131.065 21.545,131.351 19.655,131.466 18.500 L 131.674 16.400 97.037 16.400 C 72.705 16.400,62.400 16.527,62.400 16.828 M148.664 16.696 C 148.561 16.863,156.491 16.951,166.287 16.892 C 180.228 16.807,184.232 16.894,184.714 17.292 C 185.224 17.713,185.296 17.697,185.132 17.200 C 184.915 16.545,149.064 16.049,148.664 16.696 M201.624 17.300 C 201.647 18.162,201.978 20.025,202.763 23.700 C 203.146 25.492,203.846 28.986,204.427 32.000 C 204.618 32.990,204.952 34.700,205.169 35.800 C 205.386 36.900,205.723 38.657,205.919 39.704 C 206.114 40.751,206.409 41.741,206.573 41.904 C 206.898 42.227,206.667 40.634,205.717 36.000 C 205.378 34.350,205.024 32.550,204.929 32.000 C 204.834 31.450,204.601 30.280,204.411 29.400 C 204.221 28.520,203.856 26.720,203.600 25.400 C 203.344 24.080,202.979 22.280,202.788 21.400 C 202.597 20.520,202.334 19.125,202.202 18.300 L 201.964 16.800 236.138 16.800 L 270.311 16.800 272.615 20.607 C 273.882 22.702,274.989 24.344,275.075 24.258 C 275.161 24.172,274.209 22.369,272.958 20.251 L 270.684 16.400 236.142 16.400 L 201.600 16.400 201.624 17.300 M147.856 18.484 C 147.721 18.988,147.627 19.760,147.646 20.200 C 147.665 20.640,147.845 20.298,148.046 19.440 C 148.436 17.778,148.270 16.940,147.856 18.484 M185.268 19.200 C 185.288 20.239,185.918 21.946,185.932 21.000 C 185.938 20.560,185.789 19.840,185.600 19.400 C 185.389 18.910,185.261 18.832,185.268 19.200 M147.056 22.484 C 146.921 22.988,146.827 23.760,146.846 24.200 C 146.865 24.640,147.045 24.298,147.246 23.440 C 147.636 21.778,147.470 20.940,147.056 22.484 M186.068 23.200 C 186.088 24.239,186.718 25.946,186.732 25.000 C 186.738 24.560,186.589 23.840,186.400 23.400 C 186.189 22.910,186.061 22.832,186.068 23.200 M37.519 26.894 C 36.308 28.933,34.390 32.098,33.258 33.929 C 32.126 35.761,31.200 37.322,31.200 37.400 C 31.200 37.478,30.340 38.949,29.288 40.671 C 25.887 46.237,25.159 47.600,25.583 47.600 C 25.812 47.600,26.000 47.407,26.000 47.172 C 26.000 46.937,26.540 45.959,27.200 45.000 C 27.860 44.041,28.400 43.141,28.400 43.000 C 28.400 42.859,28.940 41.959,29.600 41.000 C 30.260 40.041,30.800 39.141,30.800 39.000 C 30.800 38.859,31.340 37.959,32.000 37.000 C 32.660 36.041,33.200 35.151,33.200 35.022 C 33.200 34.893,33.804 33.845,34.543 32.694 C 36.945 28.947,40.050 23.516,39.884 23.351 C 39.795 23.262,38.731 24.856,37.519 26.894 M276.271 26.700 C 276.879 27.745,278.261 30.040,279.342 31.800 C 280.422 33.560,281.623 35.540,282.009 36.200 C 282.396 36.860,286.447 43.610,291.011 51.200 C 295.576 58.790,299.667 65.630,300.102 66.400 C 300.538 67.170,301.233 68.278,301.647 68.862 C 302.061 69.446,302.400 70.035,302.400 70.170 C 302.400 70.580,304.505 73.628,304.672 73.461 C 304.758 73.375,303.327 70.807,301.493 67.753 C 299.658 64.699,297.897 61.750,297.579 61.200 C 297.260 60.650,296.910 60.110,296.800 60.000 C 296.690 59.890,296.375 59.395,296.100 58.900 C 295.825 58.405,295.375 57.595,295.100 57.100 C 294.825 56.605,294.510 56.110,294.400 56.000 C 294.004 55.604,292.746 53.385,292.529 52.700 C 292.407 52.315,292.148 52.000,291.953 52.000 C 291.759 52.000,291.600 51.842,291.600 51.649 C 291.600 51.456,288.810 46.655,285.400 40.981 C 281.990 35.307,279.200 30.592,279.200 30.504 C 279.200 30.416,278.699 29.592,278.088 28.672 C 277.476 27.752,276.726 26.505,276.420 25.900 C 276.115 25.295,275.708 24.800,275.516 24.800 C 275.323 24.800,275.664 25.655,276.271 26.700 M146.256 26.484 C 146.121 26.988,146.027 27.760,146.046 28.200 C 146.065 28.640,146.245 28.298,146.446 27.440 C 146.836 25.778,146.670 24.940,146.256 26.484 M186.868 27.200 C 186.888 28.239,187.518 29.946,187.532 29.000 C 187.538 28.560,187.389 27.840,187.200 27.400 C 186.989 26.910,186.861 26.832,186.868 27.200 M145.456 30.484 C 145.321 30.988,145.227 31.760,145.246 32.200 C 145.265 32.640,145.445 32.298,145.646 31.440 C 146.036 29.778,145.870 28.940,145.456 30.484 M187.668 31.200 C 187.688 32.239,188.318 33.946,188.332 33.000 C 188.338 32.560,188.189 31.840,188.000 31.400 C 187.789 30.910,187.661 30.832,187.668 31.200 M144.656 34.484 C 144.521 34.988,144.427 35.760,144.446 36.200 C 144.465 36.640,144.645 36.298,144.846 35.440 C 145.236 33.778,145.070 32.940,144.656 34.484 M188.446 35.200 C 188.465 35.530,188.624 36.250,188.800 36.800 L 189.120 37.800 189.154 36.800 C 189.173 36.250,189.013 35.530,188.800 35.200 C 188.455 34.667,188.416 34.667,188.446 35.200 M143.856 38.484 C 143.721 38.988,143.627 39.760,143.646 40.200 C 143.665 40.640,143.845 40.298,144.046 39.440 C 144.436 37.778,144.270 36.940,143.856 38.484 M126.464 42.050 C 126.429 42.407,126.298 43.308,126.173 44.050 C 125.988 45.155,126.029 45.271,126.398 44.691 C 126.646 44.302,126.777 43.402,126.689 42.691 C 126.600 41.981,126.499 41.693,126.464 42.050 M143.056 42.484 C 142.921 42.988,142.828 43.850,142.849 44.400 C 142.872 44.989,143.031 44.671,143.236 43.625 C 143.603 41.752,143.473 40.927,143.056 42.484 M190.262 43.800 C 190.396 44.680,190.572 45.475,190.653 45.567 C 190.956 45.910,190.729 43.768,190.381 43.000 C 190.129 42.442,190.093 42.685,190.262 43.800 M206.834 43.876 C 206.815 44.798,206.980 45.664,207.200 45.800 C 207.420 45.936,207.603 46.712,207.606 47.524 C 207.609 48.336,207.797 49.270,208.023 49.600 C 208.519 50.325,208.208 47.728,207.401 44.400 L 206.868 42.200 206.834 43.876 M125.664 46.050 C 125.629 46.407,125.498 47.308,125.373 48.050 C 125.188 49.155,125.229 49.271,125.598 48.691 C 125.846 48.302,125.977 47.402,125.889 46.691 C 125.800 45.981,125.699 45.693,125.664 46.050 M142.256 46.484 C 142.121 46.988,142.027 47.760,142.046 48.200 C 142.065 48.640,142.245 48.298,142.446 47.440 C 142.836 45.778,142.670 44.940,142.256 46.484 M191.062 47.800 C 191.196 48.680,191.372 49.475,191.453 49.567 C 191.756 49.910,191.529 47.768,191.181 47.000 C 190.929 46.442,190.893 46.685,191.062 47.800 M24.316 48.888 C 23.132 50.713,22.763 51.600,23.186 51.600 C 23.414 51.600,23.600 51.403,23.600 51.162 C 23.600 50.921,23.980 50.190,24.444 49.539 C 24.908 48.887,25.202 48.269,25.098 48.164 C 24.994 48.060,24.642 48.386,24.316 48.888 M124.666 51.341 C 124.492 52.188,124.446 52.979,124.565 53.098 C 124.927 53.461,125.268 52.137,125.122 50.934 C 124.994 49.878,124.963 49.905,124.666 51.341 M191.873 52.000 C 192.004 52.990,192.176 53.875,192.256 53.967 C 192.557 54.314,192.328 51.764,191.990 51.000 C 191.753 50.466,191.714 50.798,191.873 52.000 M208.453 51.600 C 208.431 52.370,208.587 53.270,208.800 53.600 C 209.277 54.339,209.277 53.276,208.800 51.400 L 208.495 50.200 208.453 51.600 M13.792 66.485 C 3.685 83.325,4.492 81.926,5.223 81.329 C 5.540 81.070,6.158 80.170,6.596 79.329 C 7.034 78.488,7.484 77.710,7.596 77.600 C 7.989 77.214,9.252 74.993,9.471 74.300 C 9.593 73.915,9.852 73.600,10.047 73.600 C 10.241 73.600,10.400 73.407,10.400 73.172 C 10.400 72.937,10.940 71.959,11.600 71.000 C 12.260 70.041,12.800 69.141,12.800 69.000 C 12.800 68.859,13.340 67.959,14.000 67.000 C 14.660 66.041,15.200 65.167,15.200 65.059 C 15.200 64.951,16.396 62.913,17.857 60.531 C 19.319 58.149,20.868 55.570,21.300 54.800 C 21.732 54.030,22.272 53.171,22.500 52.890 C 22.728 52.610,22.822 52.288,22.709 52.176 C 22.596 52.063,18.584 58.502,13.792 66.485 M123.853 55.341 C 123.686 56.188,123.641 56.975,123.755 57.088 C 124.058 57.391,124.497 55.385,124.314 54.532 C 124.220 54.090,124.037 54.411,123.853 55.341 M209.253 55.600 C 209.231 56.370,209.387 57.270,209.600 57.600 C 210.077 58.339,210.077 57.276,209.600 55.400 L 209.295 54.200 209.253 55.600 M140.449 55.800 C 140.416 56.240,140.296 57.050,140.183 57.600 L 139.977 58.600 140.406 57.619 C 140.642 57.079,140.761 56.269,140.672 55.819 C 140.513 55.021,140.507 55.021,140.449 55.800 M123.053 59.341 C 122.886 60.188,122.841 60.975,122.955 61.088 C 123.258 61.391,123.697 59.385,123.514 58.532 C 123.420 58.090,123.237 58.411,123.053 59.341 M210.053 59.600 C 210.031 60.370,210.187 61.270,210.400 61.600 C 210.877 62.339,210.877 61.276,210.400 59.400 L 210.095 58.200 210.053 59.600 M139.455 60.655 C 139.313 61.686,139.274 62.608,139.369 62.702 C 139.463 62.796,139.665 62.039,139.818 61.018 C 139.971 59.998,140.010 59.076,139.904 58.971 C 139.798 58.865,139.596 59.623,139.455 60.655 M193.628 60.833 C 193.644 61.365,193.819 62.160,194.019 62.600 C 194.271 63.158,194.307 62.915,194.138 61.800 C 193.855 59.943,193.587 59.436,193.628 60.833 M122.219 63.527 C 122.055 64.477,122.017 65.350,122.134 65.468 C 122.426 65.759,122.926 62.973,122.700 62.321 C 122.600 62.035,122.384 62.577,122.219 63.527 M210.853 63.600 C 210.831 64.370,210.987 65.270,211.200 65.600 C 211.677 66.339,211.677 65.276,211.200 63.400 L 210.895 62.200 210.853 63.600 M138.849 63.800 C 138.816 64.240,138.696 65.050,138.583 65.600 L 138.377 66.600 138.806 65.619 C 139.042 65.079,139.161 64.269,139.072 63.819 C 138.913 63.021,138.907 63.021,138.849 63.800 M194.428 64.633 C 194.444 65.275,194.616 66.160,194.810 66.600 C 195.047 67.134,195.086 66.802,194.927 65.600 C 194.646 63.480,194.388 62.980,194.428 64.633 M121.419 67.527 C 121.255 68.477,121.217 69.350,121.334 69.468 C 121.626 69.759,122.126 66.973,121.900 66.321 C 121.800 66.035,121.584 66.577,121.419 67.527 M211.600 67.710 C 211.600 68.503,211.791 69.271,212.026 69.416 C 212.315 69.595,212.362 69.188,212.172 68.139 C 211.803 66.097,211.600 65.945,211.600 67.710 M138.049 67.800 C 138.016 68.240,137.896 69.050,137.783 69.600 L 137.577 70.600 138.006 69.619 C 138.242 69.079,138.361 68.269,138.272 67.819 C 138.113 67.021,138.107 67.021,138.049 67.800 M120.666 71.600 C 120.503 72.590,120.211 74.120,120.018 75.000 C 119.714 76.378,119.218 78.860,118.557 82.300 L 118.385 83.200 70.992 83.200 C 36.906 83.200,23.600 83.077,23.600 82.762 C 23.600 82.521,23.928 81.846,24.328 81.262 C 25.822 79.084,27.221 76.400,26.864 76.400 C 26.660 76.400,26.393 76.715,26.271 77.100 C 25.989 77.991,24.795 79.944,23.941 80.915 C 23.024 81.955,22.781 83.507,23.492 83.780 C 24.402 84.129,117.744 84.023,118.297 83.672 C 118.848 83.322,121.298 71.866,121.092 70.600 C 121.021 70.160,120.829 70.610,120.666 71.600 M212.446 71.800 C 212.427 72.460,212.587 73.270,212.800 73.600 C 213.290 74.358,213.290 73.130,212.800 71.600 C 212.486 70.620,212.479 70.624,212.446 71.800 M137.050 72.850 C 136.717 74.517,137.040 74.840,137.400 73.200 C 137.552 72.509,137.593 71.859,137.491 71.758 C 137.389 71.656,137.191 72.147,137.050 72.850 M196.080 72.600 C 196.080 73.040,196.224 73.850,196.400 74.400 C 196.654 75.192,196.720 75.233,196.720 74.600 C 196.720 74.160,196.576 73.350,196.400 72.800 C 196.146 72.008,196.080 71.967,196.080 72.600 M305.098 74.600 C 305.334 75.040,306.539 77.110,307.776 79.200 L 310.024 83.000 262.912 83.103 C 237.000 83.160,215.600 83.130,215.356 83.037 C 215.112 82.944,214.788 81.932,214.636 80.787 C 214.484 79.643,214.266 78.801,214.150 78.917 C 213.763 79.304,214.490 82.833,215.079 83.421 C 216.105 84.448,310.135 84.079,310.334 83.048 C 310.414 82.634,310.326 82.184,310.139 82.048 C 309.953 81.912,309.603 81.440,309.362 81.000 C 308.312 79.080,307.786 78.187,307.596 78.000 C 307.484 77.890,307.034 77.112,306.596 76.271 C 306.158 75.430,305.546 74.530,305.235 74.271 C 304.761 73.877,304.739 73.930,305.098 74.600 M213.234 75.800 C 213.222 76.460,213.387 77.270,213.600 77.600 C 214.106 78.382,214.106 76.576,213.600 75.400 C 213.305 74.713,213.253 74.770,213.234 75.800 M136.250 76.850 C 135.917 78.517,136.240 78.840,136.600 77.200 C 136.752 76.509,136.793 75.859,136.691 75.758 C 136.589 75.656,136.391 76.147,136.250 76.850 M196.828 76.433 C 196.844 76.965,197.019 77.760,197.219 78.200 C 197.471 78.758,197.507 78.515,197.338 77.400 C 197.055 75.543,196.787 75.036,196.828 76.433 M135.450 80.850 C 134.840 83.900,131.443 83.600,166.613 83.600 C 191.927 83.600,198.064 83.500,198.224 83.083 C 198.333 82.799,198.242 81.854,198.021 80.983 L 197.620 79.400 197.835 81.300 L 198.049 83.200 166.779 83.200 L 135.509 83.200 135.779 81.400 C 136.085 79.363,135.832 78.940,135.450 80.850 M327.209 79.900 C 327.214 80.065,327.570 80.650,328.000 81.200 C 328.430 81.750,328.786 82.339,328.791 82.509 C 328.804 82.959,330.891 86.043,331.065 85.869 C 331.229 85.704,327.628 79.600,327.366 79.600 C 327.275 79.600,327.204 79.735,327.209 79.900 M2.896 84.669 C 0.860 88.199,0.000 89.986,-0.000 90.685 C -0.000 91.622,0.721 90.868,0.989 89.652 C 1.126 89.025,2.040 87.107,3.019 85.389 C 3.998 83.671,4.725 82.192,4.635 82.102 C 4.545 82.012,3.763 83.167,2.896 84.669 M331.200 86.556 C 331.200 86.642,331.556 87.497,331.991 88.456 C 332.771 90.175,332.783 91.369,332.791 172.667 C 332.800 252.477,332.841 256.400,333.666 256.400 C 333.877 256.400,333.903 256.176,333.724 255.900 C 333.546 255.625,333.310 217.960,333.200 172.200 C 333.009 92.638,332.968 88.943,332.271 87.700 C 331.624 86.547,331.200 86.094,331.200 86.556 M16.585 100.100 C 16.481 100.375,16.441 149.290,16.498 208.800 L 16.600 317.000 133.657 317.101 C 229.918 317.183,250.750 317.108,250.915 316.677 C 251.026 316.388,250.935 314.453,250.712 312.376 C 250.081 306.478,251.259 296.975,253.451 290.274 C 253.798 289.215,253.992 288.259,253.884 288.150 C 253.421 287.687,251.300 295.919,250.410 301.633 C 249.916 304.805,249.887 312.430,250.360 314.469 C 250.583 315.429,250.552 316.088,250.271 316.369 C 249.806 316.834,18.640 317.020,17.433 316.557 C 16.858 316.337,16.800 306.413,16.800 208.156 L 16.800 99.997 66.700 100.098 L 116.600 100.200 116.800 122.400 L 117.000 144.600 117.994 146.069 C 119.008 147.568,120.447 148.632,122.596 149.470 C 124.326 150.144,208.892 150.203,210.840 149.531 C 212.895 148.822,214.364 147.594,215.539 145.600 L 216.600 143.800 216.600 122.000 L 216.600 100.200 266.600 100.200 L 316.600 100.200 316.600 175.200 L 316.600 250.200 310.771 250.052 C 305.314 249.913,302.125 250.188,296.800 251.255 C 293.762 251.864,287.909 253.643,288.150 253.884 C 288.259 253.992,289.215 253.798,290.274 253.451 C 296.975 251.259,306.478 250.081,312.376 250.712 C 314.453 250.935,316.388 251.026,316.676 250.915 C 317.550 250.580,317.442 100.178,316.567 99.843 C 314.941 99.219,216.910 99.585,216.386 100.217 C 215.976 100.711,215.930 104.865,216.154 120.970 C 216.493 145.246,216.414 145.785,212.109 148.462 L 210.600 149.400 166.800 149.400 L 123.000 149.400 121.145 148.310 C 120.125 147.710,118.865 146.540,118.345 145.710 L 117.400 144.200 117.281 122.212 C 117.191 105.637,117.043 100.148,116.681 99.918 C 115.791 99.352,16.801 99.532,16.585 100.100 M133.393 116.600 L 133.400 133.400 166.700 133.502 C 185.015 133.559,200.000 133.469,200.000 133.302 C 200.000 133.136,185.062 133.047,166.804 133.105 L 133.609 133.209 133.498 116.505 L 133.387 99.800 133.393 116.600 M282.259 256.246 C 280.752 257.019,279.594 257.728,279.687 257.820 C 279.867 258.000,285.600 255.229,285.600 254.961 C 285.600 254.621,284.907 254.887,282.259 256.246 M334.498 256.631 C 334.883 257.017,337.353 258.406,338.100 258.658 C 338.485 258.787,338.800 259.052,338.800 259.247 C 338.800 259.441,339.001 259.600,339.247 259.600 C 341.054 259.600,351.943 269.707,355.192 274.400 C 355.725 275.170,356.260 275.890,356.381 276.000 C 356.501 276.110,356.825 276.605,357.100 277.100 C 357.375 277.595,357.825 278.405,358.100 278.900 C 358.375 279.395,358.699 279.890,358.821 280.000 C 358.942 280.110,359.363 280.890,359.755 281.732 C 360.147 282.575,360.569 283.164,360.693 283.041 C 362.035 281.698,350.488 267.243,344.219 262.418 C 340.597 259.631,332.938 255.072,334.498 256.631 M275.226 260.447 C 268.729 264.837,255.831 279.200,258.386 279.200 C 258.614 279.200,258.800 279.007,258.800 278.772 C 258.800 278.370,261.058 274.835,261.593 274.400 C 261.728 274.290,262.265 273.570,262.786 272.800 C 264.052 270.930,271.046 263.863,272.454 263.032 C 273.068 262.669,273.802 262.145,274.085 261.867 C 274.979 260.990,278.326 258.800,278.772 258.800 C 279.007 258.800,279.200 258.620,279.200 258.400 C 279.200 257.781,279.081 257.842,275.226 260.447 M301.357 266.835 C 296.092 267.716,287.144 271.416,284.547 273.786 C 284.298 274.014,283.308 274.823,282.347 275.585 C 281.386 276.346,279.783 277.786,278.785 278.785 C 277.786 279.783,276.346 281.386,275.585 282.347 C 274.823 283.308,274.014 284.298,273.786 284.547 C 273.559 284.796,272.842 285.900,272.193 287.000 C 263.245 302.172,264.662 321.044,275.766 334.594 C 276.665 335.690,277.670 336.917,278.000 337.320 C 278.330 337.723,279.860 339.067,281.400 340.306 C 282.940 341.545,284.290 342.682,284.400 342.833 C 284.890 343.505,291.579 347.021,293.930 347.842 C 300.311 350.070,310.850 351.194,314.640 350.050 C 315.278 349.857,316.790 349.484,318.000 349.220 C 323.432 348.037,329.381 345.168,333.714 341.643 C 337.458 338.597,338.597 337.458,341.643 333.714 C 345.101 329.464,347.910 323.688,349.190 318.200 C 349.446 317.100,349.834 315.480,350.051 314.600 C 350.529 312.669,350.277 302.914,349.684 300.400 C 348.560 295.629,347.576 292.789,346.056 289.930 C 344.275 286.581,343.131 284.617,342.833 284.400 C 342.682 284.290,341.545 282.940,340.306 281.400 C 339.067 279.860,337.723 278.330,337.320 278.000 C 333.045 274.499,332.182 273.759,332.067 273.500 C 331.993 273.335,331.756 273.200,331.539 273.200 C 331.322 273.200,330.392 272.700,329.472 272.089 C 322.715 267.599,310.469 265.311,301.357 266.835 M318.600 268.177 C 333.092 271.878,345.224 284.182,348.599 298.600 C 348.959 300.140,349.422 301.713,349.627 302.095 C 350.103 302.982,350.117 313.383,349.643 314.305 C 349.447 314.687,348.999 316.304,348.649 317.898 C 345.556 331.967,334.006 344.115,319.855 348.181 C 317.906 348.742,315.891 349.200,315.379 349.200 C 314.866 349.200,314.336 349.380,314.200 349.600 C 314.059 349.828,312.020 350.000,309.448 350.000 C 277.883 350.000,257.435 317.646,271.400 289.798 C 280.078 272.492,299.916 263.405,318.600 268.177 M256.200 282.400 C 255.402 283.985,254.828 285.362,254.926 285.459 C 255.023 285.557,255.752 284.336,256.545 282.745 C 257.339 281.155,257.912 279.779,257.820 279.686 C 257.727 279.594,256.998 280.815,256.200 282.400 M362.434 287.400 C 362.422 287.620,362.697 288.610,363.046 289.600 C 366.390 299.086,367.043 310.939,364.763 320.778 C 363.896 324.522,362.521 328.721,361.912 329.487 C 361.699 329.754,361.597 330.192,361.686 330.459 C 361.775 330.726,362.331 329.787,362.921 328.373 C 367.016 318.558,367.676 305.696,364.708 293.600 C 363.932 290.436,362.485 286.492,362.434 287.400 M0.000 326.004 C 0.000 327.513,2.112 330.686,4.000 332.015 L 5.400 333.000 130.400 333.200 C 199.150 333.310,255.625 333.546,255.900 333.724 C 256.176 333.903,256.400 333.877,256.400 333.666 C 256.400 332.837,251.068 332.800,131.267 332.798 C 45.318 332.796,6.933 332.666,5.874 332.372 C 3.763 331.786,1.339 329.208,0.998 327.185 C 0.764 325.802,-0.000 324.897,0.000 326.004 M360.642 332.437 C 360.289 333.144,360.000 333.888,360.000 334.089 C 360.000 334.291,359.460 335.241,358.800 336.200 C 358.140 337.159,357.600 338.137,357.600 338.372 C 357.600 338.607,357.450 338.800,357.268 338.800 C 357.085 338.800,356.682 339.295,356.373 339.900 C 356.064 340.505,355.455 341.502,355.018 342.117 L 354.225 343.233 375.934 364.917 C 396.918 385.876,399.200 388.335,399.200 389.986 C 399.200 390.408,399.380 390.864,399.600 391.000 C 399.820 391.136,400.000 390.944,400.000 390.572 C 400.000 388.483,396.871 385.037,376.417 364.601 C 364.748 352.942,355.200 343.240,355.200 343.041 C 355.200 342.841,356.255 341.033,357.544 339.023 C 359.845 335.436,361.769 331.635,361.447 331.313 C 361.357 331.224,360.995 331.729,360.642 332.437 M256.400 334.672 C 256.400 336.271,262.876 345.134,267.286 349.572 C 271.905 354.218,282.228 361.506,283.041 360.693 C 283.164 360.569,282.575 360.147,281.732 359.755 C 280.890 359.363,280.110 358.942,280.000 358.821 C 279.890 358.699,279.395 358.375,278.900 358.100 C 278.405 357.825,277.595 357.375,277.100 357.100 C 276.605 356.825,276.110 356.501,276.000 356.381 C 275.890 356.260,275.170 355.725,274.400 355.192 C 269.707 351.943,259.600 341.054,259.600 339.247 C 259.600 339.001,259.441 338.800,259.247 338.800 C 259.052 338.800,258.787 338.485,258.658 338.100 C 258.142 336.569,256.400 333.924,256.400 334.672 M341.954 355.111 C 341.429 355.501,340.505 356.072,339.900 356.378 C 339.295 356.685,338.800 357.085,338.800 357.268 C 338.800 357.450,338.607 357.600,338.372 357.600 C 338.137 357.600,337.159 358.140,336.200 358.800 C 335.241 359.460,334.291 360.000,334.089 360.000 C 333.540 360.000,331.125 361.258,331.313 361.447 C 331.635 361.769,335.436 359.845,339.023 357.544 C 341.033 356.255,342.841 355.200,343.041 355.200 C 343.240 355.200,352.942 364.748,364.601 376.417 C 385.037 396.871,388.483 400.000,390.572 400.000 C 390.944 400.000,391.136 399.820,391.000 399.600 C 390.864 399.380,390.400 399.200,389.968 399.200 C 388.291 399.200,385.505 396.615,364.808 375.856 C 353.043 364.055,343.302 354.400,343.162 354.400 C 343.022 354.400,342.479 354.720,341.954 355.111 M329.380 361.953 C 328.787 362.505,324.544 363.891,320.778 364.763 C 311.046 367.019,299.497 366.405,289.870 363.121 C 287.180 362.204,286.335 362.371,288.891 363.316 C 294.632 365.436,301.081 366.480,308.444 366.480 C 314.747 366.480,316.620 366.251,322.800 364.727 C 326.188 363.891,331.559 361.700,330.380 361.634 C 330.039 361.615,329.589 361.759,329.380 361.953 M399.500 392.231 C 399.335 392.397,399.200 392.893,399.200 393.332 C 399.200 395.589,395.551 399.200,393.269 399.200 C 392.817 399.200,392.336 399.380,392.200 399.600 C 391.297 401.061,396.394 398.799,397.817 397.106 C 399.350 395.285,400.887 390.832,399.500 392.231 " stroke="none" fill="#848484" fill-rule="evenodd"></path><path id="path2" d="M54.550 0.394 C 52.746 1.123,47.032 8.765,47.753 9.486 C 47.849 9.583,48.693 8.343,49.626 6.731 C 51.377 3.709,54.009 0.800,54.993 0.800 C 55.301 0.800,55.664 0.620,55.800 0.400 C 56.093 -0.074,55.713 -0.076,54.550 0.394 M277.200 0.195 C 277.200 0.302,277.785 0.641,278.500 0.948 C 280.376 1.753,284.400 6.459,284.400 7.846 C 284.400 7.973,284.739 8.554,285.153 9.138 C 285.567 9.722,286.266 10.830,286.707 11.600 C 289.015 15.639,291.315 19.218,291.490 19.044 C 291.598 18.935,291.308 18.313,290.844 17.661 C 290.380 17.010,290.000 16.357,290.000 16.210 C 290.000 16.064,289.490 15.192,288.867 14.272 C 288.244 13.352,287.621 12.330,287.482 12.000 C 285.235 6.672,277.200 -2.554,277.200 0.195 M46.283 11.300 C 45.352 13.121,43.645 16.003,42.753 17.262 C 42.339 17.846,42.000 18.443,42.000 18.590 C 42.000 18.736,41.460 19.641,40.800 20.600 C 40.140 21.559,39.600 22.522,39.600 22.739 C 39.600 22.956,39.465 23.193,39.300 23.267 C 38.924 23.434,37.625 25.564,37.329 26.500 C 37.207 26.885,36.948 27.200,36.753 27.200 C 36.559 27.200,36.400 27.359,36.400 27.554 C 36.400 27.749,35.219 29.838,33.775 32.196 C 32.331 34.554,31.235 36.568,31.338 36.672 C 31.442 36.775,32.150 35.811,32.913 34.530 C 33.675 33.248,37.222 27.340,40.795 21.400 C 44.367 15.460,47.371 10.465,47.469 10.300 C 47.567 10.135,47.490 10.000,47.298 10.000 C 47.105 10.000,46.649 10.585,46.283 11.300 M62.460 17.915 C 61.763 18.895,55.899 28.536,54.016 31.800 C 53.635 32.460,49.583 39.210,45.011 46.800 C 40.440 54.390,36.341 61.230,35.903 62.000 C 35.465 62.770,34.767 63.878,34.353 64.462 C 33.939 65.046,33.600 65.643,33.600 65.790 C 33.600 65.936,33.060 66.841,32.400 67.800 C 31.740 68.759,31.200 69.633,31.200 69.741 C 31.200 69.849,30.050 71.817,28.644 74.113 C 25.402 79.408,25.090 80.000,25.539 80.000 C 25.741 80.000,26.007 79.685,26.129 79.300 C 26.425 78.364,27.724 76.234,28.100 76.067 C 28.265 75.993,28.400 75.756,28.400 75.539 C 28.400 75.322,28.940 74.359,29.600 73.400 C 30.260 72.441,30.800 71.536,30.800 71.390 C 30.800 71.243,31.139 70.646,31.553 70.062 C 31.967 69.478,32.666 68.370,33.106 67.600 C 33.546 66.830,35.457 63.634,37.353 60.498 C 39.249 57.362,40.800 54.632,40.800 54.431 C 40.800 54.231,40.935 54.007,41.100 53.933 C 41.476 53.766,42.775 51.636,43.071 50.700 C 43.193 50.315,43.452 50.000,43.647 50.000 C 43.841 50.000,44.000 49.807,44.000 49.572 C 44.000 49.337,44.540 48.359,45.200 47.400 C 45.860 46.441,46.400 45.541,46.400 45.400 C 46.400 45.259,46.940 44.359,47.600 43.400 C 48.260 42.441,48.800 41.551,48.800 41.422 C 48.800 41.293,49.410 40.245,50.155 39.094 C 51.262 37.383,55.540 30.257,59.096 24.200 C 59.483 23.540,59.890 22.910,60.000 22.800 C 60.195 22.605,60.392 22.268,62.084 19.245 C 62.529 18.450,63.097 17.668,63.346 17.506 C 63.596 17.344,78.881 17.209,97.314 17.206 L 130.828 17.200 130.621 19.300 C 130.474 20.794,130.516 21.112,130.767 20.400 C 130.961 19.850,131.138 18.815,131.160 18.100 L 131.200 16.800 97.227 16.800 L 63.254 16.800 62.460 17.915 M202.208 18.300 C 202.542 20.344,203.205 23.546,203.596 25.000 C 204.232 27.367,203.988 24.610,203.252 21.108 C 202.848 19.188,202.611 17.523,202.725 17.408 C 202.840 17.294,218.011 17.200,236.439 17.200 L 269.946 17.200 270.773 18.362 C 271.228 19.001,271.600 19.643,271.600 19.790 C 271.600 19.936,272.140 20.841,272.800 21.800 C 273.460 22.759,274.000 23.722,274.000 23.939 C 274.000 24.156,274.135 24.393,274.300 24.467 C 274.676 24.634,275.975 26.764,276.271 27.700 C 276.393 28.085,276.663 28.400,276.870 28.400 C 277.329 28.400,277.612 28.932,273.619 22.300 L 270.308 16.800 236.136 16.800 L 201.964 16.800 202.208 18.300 M291.718 19.900 C 291.809 20.065,293.541 22.961,295.568 26.336 C 297.595 29.711,299.575 33.041,299.968 33.736 C 300.361 34.431,303.884 40.310,307.798 46.800 C 311.712 53.290,316.618 61.445,318.701 64.922 C 320.784 68.400,322.572 71.161,322.674 71.059 C 322.776 70.957,322.418 70.182,321.878 69.337 C 321.338 68.492,319.578 65.550,317.967 62.800 C 316.355 60.050,314.939 57.710,314.818 57.600 C 314.698 57.490,314.375 56.995,314.100 56.500 C 313.825 56.005,313.375 55.195,313.100 54.700 C 312.825 54.205,312.510 53.710,312.400 53.600 C 312.004 53.204,310.746 50.985,310.529 50.300 C 310.407 49.915,310.148 49.600,309.953 49.600 C 309.759 49.600,309.600 49.434,309.600 49.232 C 309.600 49.030,308.635 47.275,307.455 45.332 C 306.275 43.389,304.250 40.013,302.955 37.828 C 301.660 35.644,300.101 33.034,299.491 32.028 C 298.881 31.023,298.264 29.930,298.120 29.600 C 297.976 29.270,297.755 28.910,297.629 28.800 C 297.243 28.463,295.964 26.242,295.729 25.500 C 295.607 25.115,295.348 24.800,295.153 24.800 C 294.959 24.800,294.800 24.607,294.800 24.372 C 294.800 24.137,294.260 23.159,293.600 22.200 C 292.940 21.241,292.400 20.263,292.400 20.028 C 292.400 19.793,292.209 19.600,291.976 19.600 C 291.743 19.600,291.627 19.735,291.718 19.900 M129.889 22.400 C 129.736 22.950,129.625 23.850,129.642 24.400 C 129.668 25.261,129.726 25.214,130.058 24.060 C 130.270 23.324,130.381 22.424,130.306 22.060 C 130.208 21.594,130.086 21.693,129.889 22.400 M129.089 26.400 C 128.936 26.950,128.825 27.850,128.842 28.400 C 128.868 29.261,128.926 29.214,129.258 28.060 C 129.470 27.324,129.581 26.424,129.506 26.060 C 129.408 25.594,129.286 25.693,129.089 26.400 M204.056 27.600 C 204.056 28.150,204.211 28.960,204.400 29.400 C 204.713 30.129,204.744 30.112,204.744 29.200 C 204.744 28.650,204.589 27.840,204.400 27.400 C 204.087 26.671,204.056 26.688,204.056 27.600 M277.267 29.104 C 277.340 29.271,279.110 32.249,281.200 35.722 C 283.290 39.195,285.180 42.346,285.400 42.724 C 285.620 43.102,286.250 44.129,286.799 45.006 C 288.520 47.750,289.214 48.976,289.458 49.700 C 289.587 50.085,289.852 50.400,290.047 50.400 C 290.241 50.400,290.400 50.593,290.400 50.828 C 290.400 51.063,290.940 52.041,291.600 53.000 C 292.260 53.959,292.800 54.937,292.800 55.172 C 292.800 55.407,293.001 55.600,293.246 55.600 C 293.535 55.600,293.490 55.284,293.116 54.700 C 292.799 54.205,290.393 50.215,287.770 45.833 C 285.146 41.450,282.550 37.120,282.000 36.210 C 281.450 35.299,280.227 33.259,279.282 31.677 C 277.874 29.317,276.706 27.827,277.267 29.104 M128.273 30.553 C 128.123 30.945,128.016 31.746,128.036 32.333 C 128.070 33.328,128.098 33.309,128.457 32.063 C 128.873 30.619,128.723 29.382,128.273 30.553 M204.834 31.600 C 204.870 33.227,205.538 34.506,205.566 33.000 C 205.578 32.340,205.413 31.530,205.200 31.200 C 204.894 30.727,204.817 30.812,204.834 31.600 M127.473 34.553 C 127.323 34.945,127.216 35.746,127.236 36.333 C 127.270 37.328,127.298 37.309,127.657 36.063 C 128.073 34.619,127.923 33.382,127.473 34.553 M205.668 35.200 C 205.687 36.850,206.317 38.556,206.332 37.000 C 206.338 36.340,206.189 35.440,206.000 35.000 C 205.687 34.273,205.657 34.291,205.668 35.200 M29.859 38.783 C 29.276 39.663,28.800 40.489,28.800 40.619 C 28.800 40.749,28.260 41.641,27.600 42.600 C 26.940 43.559,26.400 44.537,26.400 44.772 C 26.400 45.007,26.241 45.200,26.047 45.200 C 25.852 45.200,25.593 45.515,25.471 45.900 C 25.175 46.836,23.876 48.966,23.500 49.133 C 23.335 49.207,23.200 49.444,23.200 49.661 C 23.200 49.878,22.660 50.841,22.000 51.800 C 21.340 52.759,20.800 53.628,20.800 53.731 C 20.800 53.834,19.066 56.771,16.947 60.259 C 14.828 63.746,12.784 67.140,12.403 67.800 C 12.023 68.460,11.138 69.967,10.438 71.148 C 9.737 72.330,9.237 73.371,9.328 73.461 C 9.418 73.551,14.378 65.491,20.350 55.550 C 26.323 45.609,31.144 37.410,31.063 37.330 C 30.983 37.249,30.441 37.904,29.859 38.783 M126.667 38.667 C 126.520 38.813,126.418 39.578,126.440 40.367 L 126.480 41.800 126.846 40.240 C 127.215 38.668,127.159 38.175,126.667 38.667 M206.446 39.600 C 206.509 41.480,207.114 42.846,207.154 41.200 C 207.173 40.430,207.013 39.530,206.800 39.200 C 206.495 38.728,206.419 38.814,206.446 39.600 M125.873 42.553 C 125.723 42.945,125.618 43.836,125.640 44.533 C 125.679 45.767,125.690 45.759,126.049 44.227 C 126.445 42.537,126.324 41.379,125.873 42.553 M207.246 43.400 C 207.315 45.031,207.915 46.387,207.954 45.000 C 207.973 44.340,207.813 43.530,207.600 43.200 C 207.281 42.706,207.218 42.741,207.246 43.400 M125.071 46.800 C 124.946 47.350,124.737 48.430,124.607 49.200 C 124.476 49.970,124.191 51.500,123.972 52.600 C 123.146 56.755,122.763 58.655,122.400 60.400 C 122.194 61.390,121.834 63.190,121.600 64.400 C 121.086 67.058,120.504 69.973,120.003 72.400 C 119.798 73.390,119.447 75.190,119.222 76.400 C 118.490 80.341,118.138 81.853,117.843 82.331 C 117.364 83.105,24.400 82.998,24.400 82.224 C 24.400 81.907,24.580 81.536,24.800 81.400 C 25.020 81.264,25.196 80.938,25.191 80.676 C 25.179 80.053,23.621 82.047,23.609 82.700 C 23.602 83.097,33.340 83.200,70.992 83.200 L 118.385 83.200 118.557 82.300 C 118.944 80.284,119.700 76.491,120.051 74.800 C 122.251 64.215,125.591 46.585,125.462 46.239 C 125.372 45.998,125.196 46.250,125.071 46.800 M208.053 47.400 C 208.076 47.840,208.232 48.740,208.400 49.400 L 208.705 50.600 208.747 49.200 C 208.769 48.430,208.613 47.530,208.400 47.200 C 208.081 46.706,208.020 46.742,208.053 47.400 M208.853 51.400 C 208.876 51.840,209.032 52.740,209.200 53.400 L 209.505 54.600 209.547 53.200 C 209.569 52.430,209.413 51.530,209.200 51.200 C 208.881 50.706,208.820 50.742,208.853 51.400 M209.647 55.476 C 209.784 57.568,210.304 58.635,210.353 56.924 C 210.379 56.002,210.220 55.136,210.000 55.000 C 209.780 54.864,209.621 55.078,209.647 55.476 M293.609 56.220 C 293.614 56.429,293.970 57.050,294.400 57.600 C 294.830 58.150,295.186 58.825,295.191 59.100 C 295.196 59.375,295.395 59.600,295.633 59.600 C 295.871 59.600,295.662 58.925,295.169 58.100 C 294.082 56.282,293.597 55.697,293.609 56.220 M210.453 59.400 C 210.476 59.840,210.632 60.740,210.800 61.400 L 211.105 62.600 211.147 61.200 C 211.169 60.430,211.013 59.530,210.800 59.200 C 210.481 58.706,210.420 58.742,210.453 59.400 M296.000 60.194 C 296.000 60.446,299.718 66.781,301.457 69.494 C 302.196 70.645,302.800 71.693,302.800 71.822 C 302.800 71.951,303.340 72.841,304.000 73.800 C 304.660 74.759,305.200 75.659,305.200 75.800 C 305.200 75.941,305.740 76.841,306.400 77.800 C 307.060 78.759,307.600 79.737,307.600 79.972 C 307.600 80.207,307.759 80.400,307.953 80.400 C 308.148 80.400,308.418 80.715,308.554 81.100 C 308.689 81.485,308.906 82.026,309.034 82.302 C 309.221 82.703,299.850 82.783,262.334 82.702 L 215.400 82.600 215.117 80.800 C 214.838 79.027,214.329 76.331,213.606 72.800 C 213.403 71.810,213.077 70.143,212.881 69.096 C 212.686 68.049,212.407 67.074,212.263 66.929 C 211.848 66.515,211.968 67.520,212.819 71.600 C 213.584 75.267,214.122 78.033,214.726 81.400 L 215.014 83.000 262.518 83.102 L 310.022 83.203 309.430 82.058 C 309.105 81.429,307.549 78.773,305.973 76.157 C 304.398 73.541,302.748 70.770,302.307 70.000 C 301.867 69.230,301.167 68.122,300.753 67.538 C 300.339 66.954,300.000 66.392,300.000 66.289 C 300.000 66.186,299.175 64.729,298.166 63.051 C 296.508 60.292,296.000 59.622,296.000 60.194 M211.247 63.476 C 211.384 65.568,211.904 66.635,211.953 64.924 C 211.979 64.002,211.820 63.136,211.600 63.000 C 211.380 62.864,211.221 63.078,211.247 63.476 M323.359 72.700 C 324.145 74.190,325.174 75.491,325.178 75.000 C 325.180 74.780,324.830 74.150,324.400 73.600 C 323.970 73.050,323.614 72.375,323.609 72.100 C 323.604 71.825,323.415 71.600,323.190 71.600 C 322.950 71.600,323.021 72.058,323.359 72.700 M7.400 76.093 C 5.782 78.899,5.176 79.915,4.000 81.800 C 1.375 86.005,-0.193 89.141,0.155 89.489 C 0.278 89.611,0.571 89.203,0.807 88.582 C 1.168 87.631,6.850 77.800,8.714 74.900 C 9.032 74.405,9.136 74.003,8.946 74.006 C 8.756 74.009,8.060 74.948,7.400 76.093 M325.600 76.399 C 325.835 76.839,327.043 78.864,328.285 80.899 C 329.527 82.935,331.095 85.590,331.771 86.800 L 333.000 89.000 333.200 172.267 C 333.310 218.063,333.492 255.625,333.604 255.738 C 334.156 256.289,338.400 258.314,338.400 258.026 C 338.400 257.843,337.410 257.210,336.200 256.618 L 334.000 255.541 334.000 173.517 C 334.000 87.816,334.042 90.007,332.320 86.900 C 330.537 83.683,329.856 82.529,329.153 81.538 C 328.739 80.954,328.400 80.294,328.400 80.072 C 328.400 79.849,328.265 79.607,328.100 79.533 C 327.724 79.366,326.425 77.236,326.129 76.300 C 326.007 75.915,325.741 75.600,325.539 75.600 C 325.336 75.600,325.363 75.957,325.600 76.399 M16.800 208.156 C 16.800 306.413,16.858 316.337,17.433 316.557 C 18.640 317.020,249.806 316.834,250.271 316.369 C 250.552 316.088,250.583 315.429,250.360 314.469 C 249.546 310.964,250.081 302.428,251.568 295.200 C 252.716 289.622,256.489 281.050,260.188 275.618 C 261.393 273.848,262.246 272.400,262.084 272.400 C 261.922 272.400,261.344 273.120,260.800 274.000 C 260.256 274.880,259.674 275.600,259.506 275.600 C 259.338 275.600,259.200 275.793,259.200 276.028 C 259.200 276.263,258.692 277.208,258.072 278.128 C 256.804 280.008,253.600 286.483,253.600 287.166 C 253.600 287.411,253.441 287.923,253.247 288.305 C 252.570 289.636,252.059 291.007,251.870 292.000 C 251.765 292.550,251.412 293.990,251.085 295.200 C 250.038 299.071,249.480 305.228,249.679 310.729 L 249.869 316.000 133.535 316.000 L 17.200 316.000 17.200 208.200 L 17.200 100.400 66.581 100.400 L 115.961 100.400 116.100 121.700 C 116.255 145.404,116.215 145.036,118.943 147.764 C 121.744 150.565,119.382 150.441,167.609 150.314 L 211.019 150.200 213.109 148.858 C 214.259 148.120,215.200 147.348,215.200 147.142 C 215.200 146.935,215.546 146.395,215.970 145.940 C 217.133 144.691,217.273 141.546,217.130 119.900 L 217.000 100.400 266.500 100.400 L 316.000 100.400 316.000 175.135 L 316.000 249.869 310.729 249.679 C 305.228 249.480,299.071 250.038,295.200 251.085 C 293.990 251.412,292.550 251.765,292.000 251.870 C 291.007 252.059,289.636 252.570,288.305 253.247 C 287.923 253.441,287.411 253.600,287.166 253.600 C 286.483 253.600,280.008 256.804,278.128 258.072 C 277.208 258.692,276.263 259.200,276.028 259.200 C 275.793 259.200,275.600 259.338,275.600 259.506 C 275.600 259.674,274.880 260.256,274.000 260.800 C 273.120 261.344,272.400 261.922,272.400 262.084 C 272.400 262.246,273.848 261.393,275.618 260.188 C 285.800 253.254,297.738 249.803,310.600 250.074 L 316.600 250.200 316.600 175.200 L 316.600 100.200 266.600 100.200 L 216.600 100.200 216.600 122.000 L 216.600 143.800 215.539 145.600 C 214.364 147.594,212.895 148.822,210.840 149.531 C 208.892 150.203,124.326 150.144,122.596 149.470 C 120.447 148.632,119.008 147.568,117.994 146.069 L 117.000 144.600 116.800 122.400 L 116.600 100.200 66.700 100.098 L 16.800 99.997 16.800 208.156 M338.800 258.543 C 338.800 258.622,339.790 259.344,341.000 260.147 C 342.210 260.951,343.197 261.471,343.193 261.304 C 343.181 260.798,338.800 258.045,338.800 258.543 M345.992 263.849 C 349.425 266.962,353.173 270.931,355.011 273.400 C 356.895 275.931,357.200 276.262,357.200 275.780 C 357.199 275.571,356.734 274.860,356.165 274.200 C 355.596 273.540,354.855 272.536,354.519 271.968 C 353.702 270.589,346.563 263.572,344.800 262.416 C 344.009 261.897,344.528 262.521,345.992 263.849 M267.308 266.500 C 265.012 268.755,262.959 270.960,262.747 271.400 C 262.535 271.840,263.439 271.063,264.755 269.674 C 266.071 268.284,268.284 266.087,269.674 264.792 C 271.063 263.496,272.039 262.427,271.842 262.418 C 271.645 262.408,269.605 264.245,267.308 266.500 M303.800 267.042 C 298.889 267.769,289.976 270.509,290.573 271.107 C 290.699 271.232,291.206 271.136,291.701 270.894 C 301.572 266.053,317.733 266.590,327.547 272.085 C 328.288 272.500,328.989 272.745,329.105 272.629 C 329.545 272.188,322.426 269.180,318.600 268.190 C 314.691 267.179,306.934 266.577,303.800 267.042 M287.423 272.587 C 282.293 275.529,275.420 282.430,272.554 287.514 C 271.784 288.882,271.323 290.000,271.530 290.000 C 271.737 290.000,272.007 289.685,272.129 289.300 C 272.360 288.570,273.637 286.346,274.023 286.000 C 274.146 285.890,274.506 285.421,274.823 284.957 C 275.412 284.096,278.651 280.217,279.434 279.434 C 280.217 278.651,284.096 275.412,284.957 274.823 C 285.421 274.506,285.890 274.146,286.000 274.023 C 286.346 273.637,288.570 272.360,289.300 272.129 C 289.685 272.007,290.000 271.748,290.000 271.553 C 290.000 271.086,290.134 271.033,287.423 272.587 M329.600 273.068 C 329.600 273.266,330.095 273.721,330.700 274.079 C 331.305 274.437,332.340 275.203,333.000 275.780 C 333.660 276.358,334.961 277.408,335.890 278.115 C 336.820 278.822,337.697 279.746,337.839 280.168 C 337.981 280.591,339.155 281.991,340.449 283.280 C 341.742 284.570,342.800 285.874,342.800 286.179 C 342.800 286.484,342.937 286.793,343.104 286.867 C 343.557 287.066,346.807 293.702,346.803 294.420 C 346.801 294.761,346.952 295.211,347.139 295.420 C 347.325 295.629,347.796 297.198,348.187 298.906 C 348.577 300.615,349.055 302.110,349.248 302.230 C 349.722 302.522,349.700 313.427,349.224 314.305 C 348.697 315.278,347.460 320.793,347.712 321.045 C 347.826 321.159,348.226 319.846,348.600 318.126 C 348.974 316.407,349.443 314.687,349.640 314.305 C 350.116 313.386,350.105 302.985,349.627 302.095 C 349.422 301.713,348.959 300.140,348.599 298.600 C 347.139 292.364,344.440 287.100,339.995 281.821 C 336.767 277.988,329.600 271.953,329.600 273.068 M358.031 277.900 C 358.945 279.428,359.845 280.563,359.540 279.800 C 358.940 278.306,357.793 276.400,357.493 276.400 C 357.296 276.400,357.538 277.075,358.031 277.900 M359.937 281.100 C 362.719 286.430,364.662 292.252,365.845 298.800 C 366.582 302.876,366.686 313.625,366.023 317.044 C 364.992 322.356,363.790 326.412,362.137 330.162 C 361.177 332.341,360.467 334.201,360.561 334.295 C 360.655 334.388,361.039 333.775,361.416 332.932 C 361.792 332.090,362.617 330.286,363.250 328.925 C 363.882 327.564,364.400 326.090,364.400 325.649 C 364.400 325.208,364.560 324.748,364.756 324.627 C 364.951 324.506,365.212 323.821,365.334 323.104 C 365.456 322.387,365.752 320.900,365.992 319.800 C 367.547 312.666,367.201 300.287,365.260 293.600 C 365.037 292.830,364.737 291.750,364.594 291.200 C 364.450 290.650,364.144 289.750,363.913 289.200 C 363.431 288.053,362.831 286.559,362.386 285.400 C 361.491 283.069,360.161 280.413,359.886 280.407 C 359.713 280.403,359.736 280.715,359.937 281.100 M269.681 293.473 C 265.660 303.973,266.082 315.992,270.822 325.958 C 271.700 327.804,272.513 329.220,272.629 329.105 C 272.745 328.989,272.500 328.288,272.085 327.547 C 266.621 317.788,266.080 301.517,270.894 291.701 C 271.136 291.206,271.232 290.699,271.107 290.573 C 270.982 290.448,270.340 291.753,269.681 293.473 M347.067 321.867 C 346.920 322.013,346.811 322.508,346.825 322.967 C 346.849 323.733,346.882 323.723,347.234 322.842 C 347.626 321.863,347.544 321.389,347.067 321.867 M346.000 324.520 C 346.000 325.256,345.059 327.193,344.700 327.197 C 344.535 327.199,344.400 327.560,344.400 328.000 C 344.400 328.440,344.250 328.800,344.068 328.800 C 343.885 328.800,343.480 329.295,343.168 329.900 C 342.855 330.505,342.372 331.241,342.094 331.535 C 341.816 331.829,341.102 332.729,340.509 333.535 C 339.916 334.341,338.433 335.997,337.215 337.215 C 335.997 338.433,334.341 339.916,333.535 340.509 C 332.729 341.102,331.829 341.816,331.535 342.094 C 331.241 342.372,330.505 342.855,329.900 343.168 C 329.295 343.480,328.800 343.885,328.800 344.068 C 328.800 344.250,328.440 344.400,328.000 344.400 C 327.560 344.400,327.199 344.535,327.197 344.700 C 327.193 345.059,325.256 346.000,324.520 346.000 C 324.234 346.000,324.000 346.180,324.000 346.400 C 324.000 348.462,335.842 340.058,339.779 335.202 C 344.196 329.754,347.591 324.000,346.390 324.000 C 346.176 324.000,346.000 324.234,346.000 324.520 M0.011 327.440 C -0.003 328.507,1.930 331.194,3.441 332.209 C 6.151 334.027,1.582 333.964,131.871 333.982 L 255.541 334.000 256.618 336.200 C 257.210 337.410,257.843 338.400,258.026 338.400 C 258.314 338.400,256.289 334.156,255.738 333.604 C 255.625 333.492,199.253 333.310,130.467 333.200 L 5.400 333.000 4.000 332.020 C 2.459 330.942,2.212 330.638,0.911 328.240 C 0.253 327.025,0.020 326.818,0.011 327.440 M273.384 330.632 C 278.340 338.195,287.281 345.148,295.400 347.751 C 301.447 349.691,312.144 350.759,314.305 349.640 C 314.687 349.443,316.407 348.974,318.126 348.600 C 319.846 348.226,321.159 347.826,321.045 347.712 C 320.793 347.460,315.278 348.697,314.305 349.224 C 313.414 349.707,304.884 349.715,303.360 349.234 C 302.722 349.033,300.760 348.555,299.000 348.173 C 297.240 347.790,295.629 347.325,295.420 347.139 C 295.211 346.952,294.761 346.801,294.420 346.803 C 293.702 346.807,287.066 343.557,286.867 343.104 C 286.793 342.937,286.496 342.800,286.206 342.800 C 285.916 342.800,284.616 341.743,283.316 340.451 C 282.016 339.159,280.603 337.985,280.176 337.841 C 279.749 337.698,278.822 336.820,278.115 335.890 C 277.408 334.961,276.358 333.660,275.780 333.000 C 275.203 332.340,274.437 331.305,274.079 330.700 C 273.721 330.095,273.266 329.600,273.068 329.600 C 272.870 329.600,273.012 330.064,273.384 330.632 M357.700 338.763 C 356.325 340.928,355.200 342.857,355.200 343.049 C 355.200 343.240,364.808 353.028,376.550 364.799 C 388.841 377.119,398.345 386.964,398.947 388.000 C 399.522 388.990,399.993 389.530,399.995 389.200 C 400.000 387.752,396.589 384.096,376.700 364.225 C 365.095 352.631,355.600 343.057,355.600 342.950 C 355.600 342.843,356.320 341.696,357.200 340.400 C 358.080 339.104,358.800 337.854,358.800 337.622 C 358.800 337.390,358.980 337.200,359.200 337.200 C 359.420 337.200,359.600 336.945,359.600 336.633 C 359.600 336.322,359.807 335.998,360.060 335.913 C 360.313 335.829,360.448 335.550,360.360 335.293 C 360.272 335.036,359.075 336.598,357.700 338.763 M258.400 339.005 C 258.400 339.421,261.011 343.186,261.304 343.193 C 261.471 343.197,260.951 342.210,260.147 341.000 C 258.780 338.941,258.400 338.507,258.400 339.005 M262.416 344.800 C 263.572 346.563,270.589 353.702,271.968 354.519 C 272.536 354.855,273.540 355.596,274.200 356.165 C 275.303 357.115,276.000 357.451,276.000 357.032 C 276.000 356.940,274.785 355.967,273.300 354.871 C 270.354 352.695,267.490 350.005,263.849 345.992 C 262.518 344.525,261.896 344.008,262.416 344.800 M321.800 347.200 C 321.508 347.673,321.899 347.673,323.000 347.200 C 323.771 346.869,323.769 346.855,322.924 346.828 C 322.442 346.813,321.936 346.980,321.800 347.200 M338.600 357.804 C 336.400 359.226,334.915 360.392,335.300 360.395 C 335.685 360.398,336.000 360.220,336.000 360.000 C 336.000 359.780,336.270 359.600,336.600 359.600 C 336.930 359.600,337.200 359.420,337.200 359.200 C 337.200 358.980,337.390 358.800,337.622 358.800 C 337.854 358.800,339.104 358.080,340.400 357.200 C 341.696 356.320,342.843 355.600,342.950 355.600 C 343.057 355.600,352.631 365.095,364.225 376.700 C 384.096 396.589,387.752 400.000,389.200 399.995 C 389.530 399.993,388.990 399.522,388.000 398.947 C 386.964 398.345,377.119 388.841,364.799 376.550 C 353.028 364.808,343.218 355.204,342.999 355.209 C 342.779 355.215,340.800 356.382,338.600 357.804 M276.400 357.567 C 276.400 357.805,276.625 358.004,276.900 358.009 C 277.175 358.014,277.850 358.370,278.400 358.800 C 279.373 359.561,280.572 359.964,279.780 359.264 C 278.777 358.378,276.400 357.184,276.400 357.567 M282.000 360.715 C 282.000 360.874,282.585 361.244,283.300 361.536 C 285.920 362.607,286.418 362.807,287.300 363.146 C 287.795 363.337,288.650 363.682,289.200 363.913 C 289.750 364.144,290.650 364.450,291.200 364.594 C 291.750 364.737,292.830 365.037,293.600 365.260 C 300.287 367.201,312.666 367.547,319.800 365.992 C 320.900 365.752,322.387 365.456,323.104 365.334 C 323.821 365.212,324.506 364.951,324.627 364.756 C 324.748 364.560,325.208 364.400,325.649 364.400 C 326.090 364.400,327.564 363.882,328.925 363.250 C 330.286 362.617,332.090 361.792,332.932 361.416 C 333.775 361.039,334.388 360.655,334.295 360.561 C 334.201 360.467,332.341 361.177,330.162 362.137 C 319.213 366.964,306.427 367.882,293.800 364.750 C 290.867 364.022,284.756 361.852,283.800 361.198 C 283.085 360.709,282.000 360.418,282.000 360.715 M399.077 395.135 C 398.270 396.963,397.091 398.127,394.977 399.181 C 393.339 399.999,393.593 400.287,395.359 399.615 C 396.743 399.089,399.458 396.222,399.777 394.948 C 400.179 393.348,399.823 393.443,399.077 395.135 " stroke="none" fill="#d5d5d5" fill-rule="evenodd"></path><path id="path3" d="M0.000 44.468 L 0.000 88.936 0.922 87.168 C 2.213 84.694,3.562 82.385,4.447 81.138 C 4.861 80.554,5.200 79.975,5.200 79.852 C 5.200 79.596,8.172 74.851,8.792 74.117 C 9.016 73.851,9.200 73.544,9.200 73.434 C 9.200 73.325,9.765 72.282,10.456 71.118 C 11.147 69.953,12.023 68.460,12.403 67.800 C 12.784 67.140,14.828 63.746,16.947 60.259 C 19.066 56.771,20.800 53.834,20.800 53.731 C 20.800 53.628,21.340 52.759,22.000 51.800 C 22.660 50.841,23.200 49.878,23.200 49.661 C 23.200 49.444,23.335 49.207,23.500 49.133 C 23.876 48.966,25.175 46.836,25.471 45.900 C 25.593 45.515,25.852 45.200,26.047 45.200 C 26.241 45.200,26.400 45.007,26.400 44.772 C 26.400 44.537,26.940 43.559,27.600 42.600 C 28.260 41.641,28.800 40.741,28.800 40.600 C 28.800 40.459,29.340 39.559,30.000 38.600 C 30.660 37.641,31.200 36.754,31.200 36.629 C 31.200 36.504,32.370 34.491,33.800 32.155 C 35.230 29.819,36.400 27.749,36.400 27.554 C 36.400 27.359,36.559 27.200,36.753 27.200 C 36.948 27.200,37.207 26.885,37.329 26.500 C 37.625 25.564,38.924 23.434,39.300 23.267 C 39.465 23.193,39.600 22.956,39.600 22.739 C 39.600 22.522,40.140 21.559,40.800 20.600 C 41.460 19.641,42.000 18.741,42.000 18.600 C 42.000 18.459,42.540 17.559,43.200 16.600 C 43.860 15.641,44.400 14.765,44.400 14.655 C 44.400 14.300,46.988 10.205,47.300 10.067 C 47.465 9.993,47.600 9.784,47.600 9.602 C 47.600 7.970,52.778 1.109,54.550 0.394 C 55.036 0.198,43.545 0.040,27.700 0.025 L 0.000 0.000 0.000 44.468 M280.061 1.314 C 281.534 2.437,286.431 9.492,287.479 12.000 C 287.617 12.330,288.040 13.050,288.418 13.600 C 289.548 15.243,291.219 18.151,291.464 18.900 C 291.590 19.285,291.852 19.600,292.047 19.600 C 292.241 19.600,292.400 19.793,292.400 20.028 C 292.400 20.263,292.940 21.241,293.600 22.200 C 294.260 23.159,294.800 24.137,294.800 24.372 C 294.800 24.607,294.959 24.800,295.153 24.800 C 295.348 24.800,295.607 25.115,295.729 25.500 C 295.964 26.242,297.243 28.463,297.629 28.800 C 297.755 28.910,297.976 29.270,298.120 29.600 C 298.264 29.930,298.881 31.023,299.491 32.028 C 300.101 33.034,301.660 35.644,302.955 37.828 C 304.250 40.013,306.275 43.389,307.455 45.332 C 308.635 47.275,309.600 49.030,309.600 49.232 C 309.600 49.434,309.759 49.600,309.953 49.600 C 310.148 49.600,310.407 49.915,310.529 50.300 C 310.746 50.985,312.004 53.204,312.400 53.600 C 312.510 53.710,312.825 54.205,313.100 54.700 C 313.375 55.195,313.825 56.005,314.100 56.500 C 314.375 56.995,314.698 57.490,314.818 57.600 C 314.939 57.710,316.355 60.050,317.967 62.800 C 319.578 65.550,321.325 68.471,321.848 69.291 C 322.372 70.112,322.800 70.967,322.800 71.191 C 322.800 71.416,322.959 71.600,323.153 71.600 C 323.348 71.600,323.607 71.915,323.729 72.300 C 323.946 72.985,325.204 75.204,325.600 75.600 C 325.996 75.996,327.254 78.215,327.471 78.900 C 327.593 79.285,327.852 79.600,328.047 79.600 C 328.241 79.600,328.400 79.797,328.400 80.038 C 328.400 80.279,328.739 80.954,329.153 81.538 C 329.856 82.529,330.537 83.683,332.320 86.900 C 334.042 90.007,334.000 87.816,334.000 173.517 L 334.000 255.541 336.200 256.618 C 337.410 257.210,338.400 257.853,338.400 258.047 C 338.400 258.241,338.593 258.400,338.828 258.400 C 339.274 258.400,342.621 260.590,343.515 261.467 C 343.798 261.745,344.532 262.269,345.146 262.632 C 346.543 263.457,353.535 270.516,354.822 272.400 C 355.348 273.170,356.098 274.149,356.489 274.575 C 356.880 275.002,357.200 275.587,357.200 275.875 C 357.200 276.164,357.335 276.400,357.501 276.400 C 357.666 276.400,358.247 277.255,358.791 278.300 C 359.335 279.345,359.877 280.290,359.996 280.400 C 360.229 280.617,361.853 283.982,362.504 285.600 C 364.170 289.736,364.310 290.109,364.594 291.200 C 364.737 291.750,365.037 292.830,365.260 293.600 C 367.201 300.287,367.547 312.666,365.992 319.800 C 365.752 320.900,365.456 322.387,365.334 323.104 C 365.212 323.821,364.951 324.506,364.756 324.627 C 364.560 324.748,364.400 325.208,364.400 325.649 C 364.400 326.378,363.167 329.309,361.164 333.338 C 360.744 334.184,360.400 335.129,360.400 335.438 C 360.400 335.747,360.220 336.000,360.000 336.000 C 359.780 336.000,359.600 336.270,359.600 336.600 C 359.600 336.930,359.420 337.200,359.200 337.200 C 358.980 337.200,358.800 337.390,358.800 337.622 C 358.800 337.854,358.080 339.104,357.200 340.400 C 356.320 341.696,355.600 342.843,355.600 342.950 C 355.600 343.057,365.095 352.631,376.700 364.225 C 388.305 375.819,398.294 386.047,398.898 386.953 L 399.997 388.600 399.998 194.300 L 400.000 0.000 339.169 0.000 L 278.338 0.000 280.061 1.314 M63.346 17.506 C 63.097 17.668,62.529 18.450,62.084 19.245 C 60.392 22.268,60.195 22.605,60.000 22.800 C 59.890 22.910,59.483 23.540,59.096 24.200 C 55.540 30.257,51.262 37.383,50.155 39.094 C 49.410 40.245,48.800 41.293,48.800 41.422 C 48.800 41.551,48.260 42.441,47.600 43.400 C 46.940 44.359,46.400 45.259,46.400 45.400 C 46.400 45.541,45.860 46.441,45.200 47.400 C 44.540 48.359,44.000 49.322,44.000 49.539 C 44.000 49.756,43.865 49.993,43.700 50.067 C 43.324 50.234,42.025 52.364,41.729 53.300 C 41.607 53.685,41.348 54.000,41.153 54.000 C 40.959 54.000,40.800 54.179,40.800 54.398 C 40.800 54.617,39.249 57.362,37.353 60.498 C 35.457 63.634,33.546 66.830,33.106 67.600 C 32.666 68.370,31.967 69.478,31.553 70.062 C 31.139 70.646,30.800 71.243,30.800 71.390 C 30.800 71.536,30.260 72.441,29.600 73.400 C 28.940 74.359,28.400 75.337,28.400 75.572 C 28.400 75.807,28.241 76.000,28.047 76.000 C 27.852 76.000,27.593 76.315,27.471 76.700 C 27.254 77.385,25.996 79.604,25.600 80.000 C 25.202 80.398,24.400 81.999,24.400 82.395 C 24.400 83.016,117.459 82.952,117.843 82.331 C 118.138 81.853,118.490 80.341,119.222 76.400 C 119.648 74.108,120.154 71.532,120.813 68.300 C 121.026 67.255,121.374 65.545,121.587 64.500 C 122.183 61.578,122.732 58.817,123.200 56.400 C 123.434 55.190,123.800 53.345,124.013 52.300 C 124.226 51.255,124.574 49.545,124.787 48.500 C 125.546 44.778,126.036 42.180,126.241 40.800 C 126.356 40.030,126.608 39.040,126.802 38.600 C 126.996 38.160,127.246 37.080,127.357 36.200 C 127.468 35.320,127.748 33.655,127.980 32.500 C 128.211 31.345,128.562 29.545,128.760 28.500 C 128.958 27.455,129.334 25.520,129.597 24.200 C 130.398 20.172,130.751 18.224,130.776 17.700 C 130.803 17.140,64.207 16.948,63.346 17.506 M202.713 17.420 C 202.592 17.541,202.651 18.306,202.844 19.120 C 203.037 19.934,203.483 22.220,203.835 24.200 C 204.187 26.180,204.638 28.565,204.838 29.500 C 205.701 33.553,206.025 35.131,206.416 37.200 C 206.866 39.586,207.404 42.311,208.013 45.300 C 208.869 49.499,209.243 51.465,209.441 52.800 C 209.556 53.570,209.808 54.560,210.002 55.000 C 210.196 55.440,210.448 56.520,210.562 57.400 C 211.013 60.880,211.264 62.233,211.602 63.000 C 211.796 63.440,212.043 64.520,212.151 65.400 C 212.260 66.280,212.548 67.900,212.792 69.000 C 213.037 70.100,213.414 71.900,213.631 73.000 C 213.848 74.100,214.208 75.900,214.430 77.000 C 214.652 78.100,214.961 79.810,215.117 80.800 L 215.400 82.600 262.334 82.702 C 299.850 82.783,309.221 82.703,309.034 82.302 C 308.906 82.026,308.689 81.485,308.554 81.100 C 308.418 80.715,308.148 80.400,307.953 80.400 C 307.759 80.400,307.600 80.207,307.600 79.972 C 307.600 79.737,307.060 78.759,306.400 77.800 C 305.740 76.841,305.200 75.941,305.200 75.800 C 305.200 75.659,304.660 74.759,304.000 73.800 C 303.340 72.841,302.800 71.951,302.800 71.822 C 302.800 71.693,302.196 70.645,301.457 69.494 C 299.247 66.047,296.000 60.415,296.000 60.028 C 296.000 59.829,295.865 59.607,295.700 59.533 C 295.324 59.366,294.025 57.236,293.729 56.300 C 293.607 55.915,293.348 55.600,293.153 55.600 C 292.959 55.600,292.800 55.407,292.800 55.172 C 292.800 54.937,292.260 53.959,291.600 53.000 C 290.940 52.041,290.400 51.063,290.400 50.828 C 290.400 50.593,290.241 50.400,290.047 50.400 C 289.852 50.400,289.587 50.085,289.458 49.700 C 289.214 48.976,288.520 47.750,286.799 45.006 C 286.250 44.129,285.620 43.102,285.400 42.724 C 285.180 42.346,283.290 39.195,281.200 35.722 C 279.110 32.249,277.328 29.226,277.240 29.004 C 277.152 28.782,276.972 28.510,276.840 28.400 C 276.454 28.078,275.170 25.862,274.929 25.100 C 274.807 24.715,274.548 24.400,274.353 24.400 C 274.159 24.400,274.000 24.207,274.000 23.972 C 274.000 23.737,273.460 22.759,272.800 21.800 C 272.140 20.841,271.600 19.936,271.600 19.790 C 271.600 19.643,271.228 19.001,270.773 18.362 L 269.946 17.200 236.439 17.200 C 218.011 17.200,202.834 17.299,202.713 17.420 M17.200 208.200 L 17.200 316.000 133.535 316.000 L 249.869 316.000 249.679 310.729 C 249.480 305.228,250.038 299.071,251.085 295.200 C 251.412 293.990,251.765 292.550,251.870 292.000 C 252.059 291.007,252.570 289.636,253.247 288.305 C 253.441 287.923,253.600 287.411,253.600 287.166 C 253.600 286.483,256.804 280.008,258.072 278.128 C 258.692 277.208,259.200 276.263,259.200 276.028 C 259.200 275.793,259.341 275.600,259.514 275.600 C 259.686 275.600,260.124 275.105,260.487 274.500 C 261.746 272.400,262.623 271.392,267.007 267.007 C 271.392 262.623,272.400 261.746,274.500 260.487 C 275.105 260.124,275.600 259.686,275.600 259.514 C 275.600 259.341,275.793 259.200,276.028 259.200 C 276.263 259.200,277.208 258.692,278.128 258.072 C 280.008 256.804,286.483 253.600,287.166 253.600 C 287.411 253.600,287.923 253.441,288.305 253.247 C 289.636 252.570,291.007 252.059,292.000 251.870 C 292.550 251.765,293.990 251.412,295.200 251.085 C 299.071 250.038,305.228 249.480,310.729 249.679 L 316.000 249.869 316.000 175.135 L 316.000 100.400 266.500 100.400 L 217.000 100.400 217.130 119.900 C 217.273 141.546,217.133 144.691,215.970 145.940 C 215.546 146.395,215.200 146.935,215.200 147.142 C 215.200 147.348,214.259 148.120,213.109 148.858 L 211.019 150.200 167.609 150.314 C 119.382 150.441,121.744 150.565,118.943 147.764 C 116.215 145.036,116.255 145.404,116.100 121.700 L 115.961 100.400 66.581 100.400 L 17.200 100.400 17.200 208.200 M300.008 268.247 C 297.274 268.844,293.075 270.177,291.905 270.819 C 291.523 271.029,290.938 271.200,290.605 271.200 C 290.272 271.200,290.000 271.359,290.000 271.553 C 290.000 271.748,289.685 272.007,289.300 272.129 C 288.570 272.360,286.346 273.637,286.000 274.023 C 285.890 274.146,285.421 274.506,284.957 274.823 C 284.096 275.412,280.217 278.651,279.434 279.434 C 278.651 280.217,275.412 284.096,274.823 284.957 C 274.506 285.421,274.146 285.890,274.023 286.000 C 273.637 286.346,272.360 288.570,272.129 289.300 C 272.007 289.685,271.748 290.000,271.553 290.000 C 271.359 290.000,271.200 290.272,271.200 290.605 C 271.200 290.938,271.029 291.523,270.819 291.905 C 267.077 298.725,266.557 313.360,269.741 322.257 C 270.431 324.184,272.841 329.307,273.196 329.600 C 273.329 329.710,273.875 330.430,274.408 331.200 C 274.942 331.970,275.710 332.960,276.116 333.400 C 276.522 333.840,277.426 334.961,278.127 335.890 C 278.827 336.820,279.749 337.698,280.176 337.841 C 280.603 337.985,282.016 339.159,283.316 340.451 C 284.616 341.743,285.916 342.800,286.206 342.800 C 286.496 342.800,286.793 342.937,286.867 343.104 C 287.066 343.557,293.702 346.807,294.420 346.803 C 294.761 346.801,295.211 346.952,295.420 347.139 C 295.629 347.325,297.240 347.790,299.000 348.173 C 300.760 348.555,302.722 349.033,303.360 349.234 C 304.813 349.693,313.706 349.718,314.220 349.265 C 314.429 349.080,316.130 348.601,318.000 348.200 C 319.870 347.799,321.571 347.320,321.780 347.135 C 321.989 346.951,322.574 346.800,323.080 346.800 C 323.586 346.800,324.000 346.620,324.000 346.400 C 324.000 346.180,324.234 346.000,324.520 346.000 C 325.256 346.000,327.193 345.059,327.197 344.700 C 327.199 344.535,327.560 344.400,328.000 344.400 C 328.440 344.400,328.800 344.250,328.800 344.068 C 328.800 343.885,329.295 343.480,329.900 343.168 C 330.505 342.855,331.241 342.372,331.535 342.094 C 331.829 341.816,332.729 341.102,333.535 340.509 C 335.418 339.122,339.122 335.418,340.509 333.535 C 341.102 332.729,341.816 331.829,342.094 331.535 C 342.372 331.241,342.855 330.505,343.168 329.900 C 343.480 329.295,343.885 328.800,344.068 328.800 C 344.250 328.800,344.400 328.440,344.400 328.000 C 344.400 327.560,344.535 327.199,344.700 327.197 C 345.059 327.193,346.000 325.256,346.000 324.520 C 346.000 324.234,346.180 324.000,346.400 324.000 C 346.620 324.000,346.800 323.586,346.800 323.080 C 346.800 322.574,346.951 321.989,347.135 321.780 C 347.320 321.571,347.799 319.870,348.200 318.000 C 348.601 316.130,349.080 314.429,349.265 314.220 C 349.713 313.712,349.697 302.507,349.248 302.230 C 349.055 302.110,348.577 300.615,348.187 298.906 C 347.796 297.198,347.325 295.629,347.139 295.420 C 346.952 295.211,346.801 294.761,346.803 294.420 C 346.807 293.702,343.557 287.066,343.104 286.867 C 342.937 286.793,342.800 286.484,342.800 286.179 C 342.800 285.874,341.742 284.570,340.449 283.280 C 339.155 281.991,337.981 280.591,337.839 280.168 C 337.697 279.746,336.820 278.827,335.890 278.127 C 334.961 277.426,333.840 276.522,333.400 276.116 C 332.960 275.710,331.970 274.942,331.200 274.408 C 330.430 273.875,329.710 273.329,329.600 273.196 C 329.308 272.842,324.175 270.426,322.333 269.776 C 316.172 267.603,306.110 266.913,300.008 268.247 M-0.000 364.140 L 0.000 400.000 194.300 399.998 L 388.600 399.997 386.953 398.898 C 386.047 398.294,375.819 388.305,364.225 376.700 C 352.631 365.095,343.057 355.600,342.950 355.600 C 342.843 355.600,341.696 356.320,340.400 357.200 C 339.104 358.080,337.854 358.800,337.622 358.800 C 337.390 358.800,337.200 358.980,337.200 359.200 C 337.200 359.420,336.930 359.600,336.600 359.600 C 336.270 359.600,336.000 359.780,336.000 360.000 C 336.000 360.220,335.747 360.400,335.438 360.400 C 335.129 360.400,334.184 360.744,333.338 361.164 C 329.309 363.167,326.378 364.400,325.649 364.400 C 325.208 364.400,324.748 364.560,324.627 364.756 C 324.506 364.951,323.821 365.212,323.104 365.334 C 322.387 365.456,320.900 365.752,319.800 365.992 C 312.666 367.547,300.287 367.201,293.600 365.260 C 292.830 365.037,291.750 364.737,291.200 364.594 C 290.650 364.450,289.795 364.168,289.300 363.967 C 288.805 363.765,287.950 363.420,287.400 363.200 C 286.368 362.787,285.534 362.449,283.300 361.536 C 282.585 361.244,282.000 360.869,282.000 360.702 C 282.000 360.536,281.655 360.400,281.233 360.400 C 280.812 360.400,280.407 360.265,280.333 360.100 C 280.166 359.724,278.036 358.425,277.100 358.129 C 276.715 358.007,276.400 357.748,276.400 357.553 C 276.400 357.359,276.164 357.200,275.875 357.200 C 275.587 357.200,275.002 356.880,274.575 356.489 C 274.149 356.098,273.170 355.348,272.400 354.822 C 270.516 353.535,263.457 346.543,262.632 345.146 C 262.269 344.532,261.745 343.798,261.467 343.515 C 260.590 342.621,258.400 339.274,258.400 338.828 C 258.400 338.593,258.241 338.400,258.047 338.400 C 257.853 338.400,257.210 337.410,256.618 336.200 L 255.541 334.000 131.871 333.982 C 35.657 333.969,7.800 333.856,6.400 333.475 C 4.059 332.839,2.550 331.800,1.141 329.856 L -0.000 328.280 -0.000 364.140 M399.600 395.322 C 399.600 396.056,397.117 398.682,395.746 399.397 C 394.625 399.982,394.659 399.995,397.300 399.998 L 400.000 400.000 400.000 397.400 C 400.000 395.970,399.910 394.800,399.800 394.800 C 399.690 394.800,399.600 395.035,399.600 395.322 " stroke="none" fill="#ffffff" fill-rule="evenodd"></path><path id="path4" d="M148.660 17.103 C 148.557 17.270,147.185 23.885,145.611 31.803 C 144.038 39.722,142.509 47.370,142.214 48.800 C 141.918 50.230,141.470 52.480,141.218 53.800 C 140.966 55.120,140.586 57.010,140.374 58.000 C 139.964 59.912,138.903 65.139,138.385 67.800 C 137.871 70.442,137.147 74.099,136.800 75.800 C 136.216 78.665,135.605 82.189,135.602 82.700 C 135.600 83.096,142.110 83.200,166.825 83.200 L 198.049 83.200 197.792 81.300 C 197.651 80.255,197.388 78.860,197.208 78.200 C 197.027 77.540,196.670 75.830,196.413 74.400 C 195.966 71.910,195.741 70.806,194.860 66.800 C 194.643 65.810,194.270 64.010,194.031 62.800 C 189.567 40.156,184.958 17.753,184.670 17.300 C 184.312 16.736,149.006 16.543,148.660 17.103 M133.600 116.600 L 133.600 133.205 166.700 133.102 L 199.800 133.000 199.800 116.600 L 199.800 100.200 166.700 100.098 L 133.600 99.995 133.600 116.600 " stroke="none" fill="#24b1f1" fill-rule="evenodd"></path></g></svg>