<svg width="64" height="64" xmlns="http://www.w3.org/2000/svg">

 <g>
  <title>background</title>
  <rect fill="none" id="canvas_background" height="402" width="582" y="-1" x="-1"/>
 </g>
 <g>
  <title>Layer 1</title>
  <path id="svg_10" fill="#ffd65b" d="m19.485,35.466c-0.24,-0.866 -1.029,-1.466 -1.927,-1.466l-5.151,0c-0.6,0 -1.169,0.27 -1.549,0.735c-0.38,0.465 -0.531,1.076 -0.411,1.665c0.911,4.469 3.152,8.489 6.48,11.625c0.374,0.352 0.865,0.544 1.371,0.544c0.097,0 0.194,-0.007 0.291,-0.021c0.605,-0.089 1.136,-0.449 1.441,-0.979l2.6,-4.503c0.434,-0.752 0.333,-1.699 -0.25,-2.343c-1.355,-1.497 -2.357,-3.315 -2.895,-5.257z"/>
  <path id="svg_11" fill="#ef39ef" d="m36.903,45.656c-0.362,-0.628 -1.028,-1 -1.732,-1c-0.142,0 -0.285,0.015 -0.427,0.046c-0.905,0.198 -1.829,0.298 -2.744,0.298c-1.28,0 -2.544,-0.188 -3.759,-0.557c-0.193,-0.059 -0.389,-0.087 -0.582,-0.087c-0.7,0 -1.368,0.369 -1.732,1l-2.553,4.422c-0.295,0.511 -0.349,1.125 -0.149,1.68c0.2,0.555 0.635,0.992 1.188,1.196c2.419,0.893 4.971,1.346 7.587,1.346c2.164,0 4.299,-0.313 6.346,-0.93c0.585,-0.176 1.057,-0.61 1.282,-1.178c0.225,-0.568 0.178,-1.208 -0.127,-1.737l-2.598,-4.499z"/>
  <path id="svg_12" fill="#abf461" d="m44.516,28.529c0.238,0.869 1.028,1.471 1.929,1.471l5.151,0c0.6,0 1.168,-0.269 1.548,-0.734c0.38,-0.464 0.531,-1.074 0.412,-1.662c-0.984,-4.871 -3.635,-9.309 -7.464,-12.497c-0.362,-0.301 -0.816,-0.463 -1.28,-0.463c-0.117,0 -0.234,0.01 -0.351,0.031c-0.581,0.104 -1.086,0.458 -1.381,0.969l-2.556,4.428c-0.465,0.805 -0.313,1.825 0.366,2.461c1.743,1.629 2.997,3.703 3.626,5.996z"/>
  <path id="svg_13" fill="#7a89f9" d="m38.346,10.93c-2.047,-0.617 -4.182,-0.93 -6.346,-0.93c-2.616,0 -5.168,0.453 -7.587,1.346c-0.553,0.204 -0.988,0.642 -1.188,1.197c-0.2,0.554 -0.146,1.169 0.149,1.68l2.553,4.422c0.364,0.631 1.032,1 1.732,1c0.194,0 0.389,-0.028 0.582,-0.087c1.215,-0.37 2.479,-0.558 3.759,-0.558c0.915,0 1.839,0.1 2.744,0.298c0.142,0.031 0.286,0.046 0.427,0.046c0.704,0 1.369,-0.372 1.732,-1l2.598,-4.499c0.305,-0.529 0.352,-1.169 0.127,-1.736c-0.225,-0.568 -0.697,-1.002 -1.282,-1.179z"/>
  <path id="svg_14" fill="#ff6666" d="m51.596,34l-5.151,0c-0.901,0 -1.69,0.602 -1.929,1.471c-0.629,2.294 -1.883,4.368 -3.625,5.997c-0.679,0.635 -0.831,1.655 -0.366,2.46l2.556,4.428c0.295,0.511 0.8,0.866 1.381,0.969c0.117,0.021 0.234,0.031 0.351,0.031c0.464,0 0.918,-0.161 1.28,-0.463c3.829,-3.188 6.48,-7.627 7.464,-12.497c0.119,-0.588 -0.033,-1.198 -0.412,-1.663c-0.381,-0.464 -0.949,-0.733 -1.549,-0.733z"/>
  <path id="svg_15" fill="#7cc4ff" d="m20.03,16.432c-0.306,-0.529 -0.837,-0.89 -1.441,-0.979c-0.097,-0.014 -0.194,-0.021 -0.291,-0.021c-0.506,0 -0.998,0.192 -1.371,0.544c-3.329,3.136 -5.57,7.156 -6.48,11.625c-0.12,0.588 0.031,1.2 0.411,1.665c0.379,0.464 0.948,0.734 1.548,0.734l5.151,0c0.899,0 1.687,-0.6 1.927,-1.466c0.538,-1.943 1.54,-3.761 2.895,-5.258c0.583,-0.644 0.684,-1.59 0.25,-2.343l-2.599,-4.501z"/>
 </g>
</svg>