<?xml version="1.0" encoding="UTF-8" standalone="no"?>
<svg width="1487px" height="440px" viewBox="0 0 1487 440" version="1.1" xmlns="http://www.w3.org/2000/svg" xmlns:xlink="http://www.w3.org/1999/xlink">
    <!-- Generator: Sketch 39.1 (31720) - http://www.bohemiancoding.com/sketch -->
    <title>Playstore</title>
    <desc>Created with Sketch.</desc>
    <defs>
        <linearGradient x1="50%" y1="0%" x2="50%" y2="38.9125982%" id="linearGradient-1">
            <stop stop-color="#FBDA09" offset="0%"></stop>
            <stop stop-color="#FFBC00" offset="100%"></stop>
        </linearGradient>
        <path d="M111.347546,26.7263503 C119.950251,11.6012365 133.896226,11.5977739 142.50115,26.7263503 L264.63327,241.450496 C273.236225,256.575609 266.114771,268.836937 248.717851,268.836937 L5.1348446,268.836937 C-12.2579539,268.836937 -19.3857018,256.579072 -10.781027,241.450496 L111.347546,26.7263503 Z" id="path-2"></path>
        <linearGradient x1="0%" y1="58.4755255%" x2="69.3064856%" y2="39.0830098%" id="linearGradient-4">
            <stop stop-color="#01E2FF" offset="0%"></stop>
            <stop stop-color="#01C4FF" offset="100%"></stop>
        </linearGradient>
        <linearGradient x1="20.2810876%" y1="20.1019903%" x2="83.820166%" y2="83.6214476%" id="linearGradient-5">
            <stop stop-color="#28D781" offset="0%"></stop>
            <stop stop-color="#02F076" offset="100%"></stop>
        </linearGradient>
        <linearGradient x1="74.4881466%" y1="17.4301299%" x2="10.1079427%" y2="91.1838038%" id="linearGradient-6">
            <stop stop-color="#F2414E" offset="0%"></stop>
            <stop stop-color="#E02554" offset="100%"></stop>
        </linearGradient>
    </defs>
    <g id="Page-1" stroke="none" stroke-width="1" fill="none" fill-rule="evenodd">
        <g id="App-Store-Badges" transform="translate(-457.000000, -54.000000)">
            <g id="Playstore" transform="translate(457.000000, 54.000000)">
                <rect id="background" fill="#000000" x="0" y="0" width="1487" height="439.196078" rx="50"></rect>
                <g id="googleplay" transform="translate(451.000000, 146.000000)" fill="#FFFFFF">
                    <g id="big-P" transform="translate(624.000000, 5.000000)">
                        <path d="M5,3.51464178e-06 L61.6928936,0 C61.6928936,0 94.3294296,5.55273437 94.3294271,43.0297987 C94.3294245,80.5068629 61.6928936,86.0595973 61.6928936,86.0595973 L5,86.0596008 L5,3.51464178e-06 Z M16,20.8169128 L54.485906,20.8169128 C54.485906,20.8169128 72,20.8169128 72,43.9084564 C72,67 54.485906,67 54.485906,67 L16,67 L16,20.8169128 Z" id="Combined-Shape"></path>
                        <rect id="Rectangle-6" x="0" y="0" width="20" height="140"></rect>
                    </g>
                    <rect id="y" x="730" y="5" width="20" height="140"></rect>
                    <path d="M824.128019,134.990133 L824.128019,144.955078 L844.128019,144.955078 L844.128019,84.1861912 C844.1294,84.1473706 844.130094,84.1082973 844.130094,84.0689697 C844.130094,75.9893799 838.208982,52 803.4288,52 C775.457031,52 766.134855,71.2177734 766.134855,71.2177734 L782.794035,81.0634766 C782.794035,81.0634766 786.815607,71.2177734 805.026456,71.2177734 C818.281785,71.2177734 822.703237,81.2277765 824.128019,86.6756044 L824.128019,90.7890503 C818.317975,87.9652114 805.746148,83.5178127 787.796476,86.1870117 C762.447355,89.956543 764.019132,113.6709 764.019132,115.631836 C764.019132,117.592772 764.035735,146.671877 795.902433,144.681641 C809.812276,143.812901 818.619314,139.53522 824.128019,134.990133 Z M822.699308,105.00293 C822.699308,105.00293 784.169035,94.6176765 782.829679,116.263184 C781.490324,137.908691 819.794035,127.515137 823.216398,112.170898 C823.216397,107.291504 822.699308,105.00293 822.699308,105.00293 Z" id="a"></path>
                    <path d="M881.656657,139.68842 L863,184 L883,184 L937.109375,55.484375 L917.109375,55.484375 L891.656657,115.937338 L866,55 L846,55 L881.656657,139.68842 Z" id="y"></path>
                    <path d="M579.225347,87.7256561 C579.225347,87.7256561 570.456382,52 536.925375,52 C503.394368,52 492,82.1955793 492,100.028142 C492,118.536746 506.355239,147.036382 538.947907,147.036382 C565.470547,147.036382 578.42071,126.09202 578.42071,126.09202 L562.37233,115.223582 C562.37233,115.223582 553.965929,128.49876 539.074315,128.422877 C520.056556,128.325968 515.971382,113.867149 515.971382,113.867149 L579.225347,87.7256561 Z M555.158551,80.3201529 C555.158551,80.3201529 547.200324,68.211908 534.995218,70.4449359 C509.177547,75.1684986 512.426481,97.7615592 512.426481,97.7615592 L555.158551,80.3201529 Z" id="e"></path>
                    <rect id="i" x="462" y="5" width="21.1587983" height="139.705882"></rect>
                    <path d="M428.139896,55.0362628 L428.139896,63.7547098 C428.139896,63.7547098 419.63712,51.5174121 401.947253,52.0147593 C379.862271,52.6356743 357,69.7053804 357,99.5481092 C357,129.390838 381.279502,146.895941 401.710845,146.895912 C420.5554,146.895886 428.142327,135.021519 428.142327,135.021519 L428.142327,144.58785 C428.142327,151.416343 425.582559,171.365032 403.655588,171.365058 C384.400814,171.365081 378.92211,154.12739 378.92211,154.12739 L360.958766,161.682058 C360.958766,161.682058 371.154079,189.651733 402.722111,189.651733 C434.290144,189.651733 447.699143,165.877479 447.699143,143.355363 L447.699143,55.2052336 L428.139896,55.0362628 Z M403.380893,128.982756 C417.644298,128.982756 429.207073,115.917079 429.207073,99.7997496 C429.207073,83.6824201 417.644298,70.6167431 403.380893,70.6167431 C389.117487,70.6167431 377.554713,83.6824201 377.554713,99.7997496 C377.554713,115.917079 389.117487,128.982756 403.380893,128.982756 Z" id="g"></path>
                    <path d="M300.607296,147 C326.90008,147 348.214592,125.733526 348.214592,99.5 C348.214592,73.2664744 326.90008,52 300.607296,52 C274.314513,52 253,73.2664744 253,99.5 C253,125.733526 274.314513,147 300.607296,147 Z M300.296137,128.372549 C315.075088,128.372549 327.055794,115.445869 327.055794,99.5 C327.055794,83.5541315 315.075088,70.627451 300.296137,70.627451 C285.517187,70.627451 273.536481,83.5541315 273.536481,99.5 C273.536481,115.445869 285.517187,128.372549 300.296137,128.372549 Z" id="o"></path>
                    <path d="M197.607296,147 C223.90008,147 245.214592,125.733526 245.214592,99.5 C245.214592,73.2664744 223.90008,52 197.607296,52 C171.314513,52 150,73.2664744 150,99.5 C150,125.733526 171.314513,147 197.607296,147 Z M197.296137,128.372549 C212.075088,128.372549 224.055794,115.445869 224.055794,99.5 C224.055794,83.5541315 212.075088,70.627451 197.296137,70.627451 C182.517187,70.627451 170.536481,83.5541315 170.536481,99.5 C170.536481,115.445869 182.517187,128.372549 197.296137,128.372549 Z" id="o"></path>
                    <g id="big-g">
                        <polygon id="Rectangle-1" points="74.6781116 67.0588235 137.532189 67.0588235 136.909871 86.9281046 74.6781116 86.9281046"></polygon>
                        <path d="M142.781083,67.0588235 C142.783166,67.304508 142.784209,67.5506922 142.784209,67.7973729 C149.690476,118.394672 115.153065,147.529169 73.7446352,147.156863 C33.016637,147.098596 0,114.214677 0,73.5784314 C0,32.9421858 33.0165978,0 73.7446352,0 C95.0333774,0 112.929679,7.42097264 125.163512,20.3083697 L110.780739,34.6587272 C101.809772,25.5071713 89.0683235,20.4901961 74.3669528,20.4901961 C44.9809005,20.4901961 21.1587983,44.2586086 21.1587983,73.5784314 C21.1587983,102.898254 44.9809005,126.666667 74.3669528,126.666667 C103.753005,126.666667 124.616668,109.716414 124.572911,73.5784314 C124.622612,71.3451277 124.570488,69.1711998 124.421002,67.0588235 L142.781083,67.0588235 Z" id="Oval-1"></path>
                    </g>
                </g>
                <g id="logo_play" transform="translate(109.000000, 78.000000)">
                    <mask id="mask-3" fill="white">
                        <use xlink:href="#path-2"></use>
                    </mask>
                    <use id="yellow" fill="url(#linearGradient-1)" transform="translate(126.926155, 142.109077) rotate(-270.000000) translate(-126.926155, -142.109077) " xlink:href="#path-2"></use>
                    <polygon id="blue" fill="url(#linearGradient-4)" mask="url(#mask-3)" points="1.28785871e-14 0.901388885 139.786844 139.83674 -1.80555556 284.263498"></polygon>
                    <polygon id="green" fill="url(#linearGradient-5)" mask="url(#mask-3)" points="-28.7453704 -27.7004557 139.770255 139.877379 189.871914 92.0812284"></polygon>
                    <polygon id="red" fill="url(#linearGradient-6)" mask="url(#mask-3)" points="139.79321 139.845407 216.493827 217.156037 -12.6419753 294.466667"></polygon>
                </g>
            </g>
        </g>
    </g>
</svg>