<?xml version="1.0"?>
<svg xmlns="http://www.w3.org/2000/svg" xmlns:xlink="http://www.w3.org/1999/xlink" version="1.1" id="Capa_1" x="0px" y="0px" viewBox="0 0 512 512" style="enable-background:new 0 0 512 512;" xml:space="preserve" width="512px" height="512px" class=""><g><g>
	<g>
		<g>
			<path d="M334.127,240.903c4.766-4.147,10.219-8.729,15.99-13.581C392.691,191.533,451,142.519,451,91V60     c0-33.084-26.916-60-60-60H121C87.916,0,61,26.916,61,60v31c0,51.519,58.309,100.533,100.883,136.322     c5.771,4.852,11.223,9.434,15.989,13.581c4.53,3.941,7.128,9.443,7.128,15.097c0,5.653-2.598,11.156-7.127,15.097     c-4.766,4.147-10.219,8.729-15.99,13.581C119.309,320.467,61,369.481,61,421v31c0,33.084,26.916,60,60,60h270     c33.084,0,60-26.916,60-60c0-11.046-8.954-20-20-20c-11.046,0-20,8.954-20,20c0,11.028-8.972,20-20,20H121     c-11.028,0-20-8.972-20-20v-31c0-32.888,54.224-78.469,86.622-105.704c5.904-4.963,11.483-9.652,16.506-14.022     C217.393,289.733,225,273.231,225,256c0-17.232-7.607-33.734-20.873-45.275c-5.023-4.369-10.601-9.058-16.505-14.022     C155.224,169.469,101,123.888,101,91V60c0-11.028,8.972-20,20-20h270c11.028,0,20,8.972,20,20v31     c0,32.888-54.224,78.469-86.622,105.703c-5.904,4.963-11.483,9.652-16.506,14.022C294.607,222.266,287,238.768,287,256     s7.607,33.734,20.873,45.274c5.235,4.554,11.068,9.437,17.245,14.607c19.456,16.285,41.509,34.745,58.915,54.384     c7.326,8.265,19.965,9.029,28.233,1.702c8.266-7.326,9.028-19.967,1.702-28.233c-19.383-21.869-43.665-42.194-63.177-58.526     c-6.025-5.044-11.717-9.808-16.663-14.112C329.598,267.155,327,261.653,327,256S329.598,244.844,334.127,240.903z" data-original="#000000" class="active-path" data-old_color="#ffffff" fill="#ffffff"/>
			<path d="M276.716,334.668c-11.922-10.225-29.509-10.225-41.43,0c-0.737,0.632-57.995,48.948-73.207,65.211     c-0.168,0.18-0.336,0.359-0.501,0.538C151.46,411.301,159.216,429,174.082,429h163.836c14.866,0,22.622-17.699,12.506-28.583     c-0.166-0.178-0.333-0.358-0.501-0.538C334.711,383.616,277.453,335.301,276.716,334.668z" data-original="#000000" class="active-path" data-old_color="#ffffff" fill="#ffffff"/>
		</g>
	</g>
</g></g> </svg>
