<?xml version="1.0"?>
<svg xmlns="http://www.w3.org/2000/svg" xmlns:xlink="http://www.w3.org/1999/xlink" version="1.1" id="Layer_1" x="0px" y="0px" viewBox="0 0 512 512" style="enable-background:new 0 0 512 512;" xml:space="preserve" width="512px" height="512px" class=""><g><path style="fill:#FA6E51;" d="M512,256.006C512,397.402,397.394,512.004,256.004,512C114.606,512.004,0,397.402,0,256.006  C-0.007,114.61,114.606,0,256.004,0C397.394,0,512,114.614,512,256.006z" data-original="#FA6E51" class=""/><path style="fill:#FA6E51" d="M511.935,258.575c-0.16-0.159-0.318-0.32-0.478-0.478c-0.453-0.459-127.638-127.644-128.096-128.096  C350.845,97.136,305.774,76.717,256,76.717c-98.855,0-179.283,80.428-179.283,179.283c0,49.772,20.418,94.842,53.282,127.358  c0.454,0.46,0.91,0.915,1.37,1.37c0.451,0.457,126.27,126.275,126.726,126.726c0.16,0.161,0.322,0.321,0.482,0.482  C397.917,510.561,510.559,397.92,511.935,258.575z" data-original="#E8573F" class="active-path" data-old_color="#E8573F"/><g>
	<path style="fill:#F4F6F9" d="M256,76.717c-98.855,0-179.283,80.428-179.283,179.283S157.145,435.283,256,435.283   S435.283,354.855,435.283,256S354.855,76.717,256,76.717z M256,420.342c-90.619,0-164.342-73.724-164.342-164.342   S165.381,91.658,256,91.658S420.342,165.381,420.342,256S346.619,420.342,256,420.342z" data-original="#F4F6F9" class=""/>
	<path style="fill:#F4F6F9" d="M345.642,248.53H166.358c-4.129,0-7.47,3.345-7.47,7.47c0,4.126,3.341,7.47,7.47,7.47h179.283   c4.129,0,7.47-3.345,7.47-7.47C353.111,251.874,349.771,248.53,345.642,248.53z" data-original="#F4F6F9" class=""/>
</g></g> </svg>
