<?xml version="1.0" encoding="utf-8"?>
<!-- Generator: Adobe Illustrator 23.0.1, SVG Export Plug-In . SVG Version: 6.00 Build 0)  -->
<svg version="1.1" id="Layer_1" xmlns="http://www.w3.org/2000/svg" xmlns:xlink="http://www.w3.org/1999/xlink" x="0px" y="0px"
	 viewBox="0 0 1000 1000" style="enable-background:new 0 0 1000 1000;" xml:space="preserve">
<style type="text/css">
	.st0{fill:#57AAF7;}
	.st1{opacity:0.18;fill:#FFFFFF;}
	.st2{opacity:0.41;fill:#FFFFFF;}
</style>
<path class="st0" d="M86.61,515.71c-2.89-39.37,27.21-79.27,65.15-81.6c25.64-1.58,49.55,14.33,61.84,36.66
	c15.74,28.6,13.13,69.08-12.15,93.43c-22.69,21.86-56.05,23.4-80.61,8.28C119.28,571.52,89.29,552.34,86.61,515.71z"/>
<path class="st0" d="M223.46,427.45"/>
<path class="st0" d="M224.46,438.47"/>
<path class="st0" d="M229.47,454.49c-4.62,19.21,15.4,26.86,22.03,58.08c5.54,26.08-5.29,35.53,4.01,48.07
	c10.76,14.51,38.06,19.06,55.08,9.01c14.06-8.3,16.71-29.9,22.03-73.1c3.61-29.36,1.35-39.58-5.01-47.07
	c-7.86-9.26-22.04-14.35-27.04-10.01c-4.92,4.27,2.36,14.79,6.01,39.06c2.59,17.21,6.33,40.64-6.01,52.07
	c-5.61,5.2-14.91,8.26-20.03,5.01c-5.25-3.34-3.47-11.65-5.01-30.04c0,0-1.53-14.67-5.01-31.04c-2.55-11.99-8.4-39.52-20.03-41.06
	C242.76,432.43,232.26,442.88,229.47,454.49z"/>
<path class="st0" d="M433.76,557.64"/>
<path class="st0" d="M377.68,535.61"/>
<path class="st0" d="M458.8,552.63"/>
<path class="st0" d="M451.79,511.57"/>
<path class="st0" d="M374.68,541.61"/>
<path class="st0" d="M348.64,456.49c2.67,21.06,5.54,23.38,7.01,36.05c1.72,14.83-0.33,27.94-3,45.06
	c-2.75,17.59-5.11,21.59-2,27.04c6.61,11.59,29.9,15.53,38.05,7.01c6.13-6.4-0.97-14.96-4.01-44.06c-2.85-27.27-4.45-42.6,1-61.09
	c2.99-10.15,7.45-19.02,3-27.04c-3.93-7.09-12.52-9.36-15.02-10.01c-1.07-0.28-15.93-4-23.03,4.01
	C347.39,437.12,346.81,442.07,348.64,456.49z"/>
<path class="st0" d="M496.85,456.49c-5.05-14.96-28.04-21.25-45.06-18.03c-19.11,3.62-29.92,19.12-34.05,25.04
	c-19.98,28.64-20.46,74.9,10.01,101.14c15.68,13.51,39.26,18.23,61.09,9.01c2.84-1.2,13.1-2.84,20.23-11.41
	c1.31-1.57,6-7.64,6.81-16.63c0.91-10.22-3.35-22.72-12.02-28.04c-16.35-10.04-35.56,13.35-53.08,4.01
	c-9.85-5.26-16.35-19.37-13.02-32.05c3.14-11.93,14.57-21.02,25.04-21.03c13.34-0.01,19.15,14.72,27.04,12.02
	C496.35,478.3,499.96,465.68,496.85,456.49z"/>
<path class="st0" d="M531.24,488.03c2.64,14.66,4.57,25.37,4.42,39.76c-0.07,6.3-0.63,23.12-1.77,44.17
	c-0.55,10.15-0.9,15.27,2.65,18.55c6.1,5.65,21.47,3.78,27.39-4.42c8.48-11.74-7.51-29.41,1.77-40.64
	c3.98-4.82,11.32-6.87,16.79-5.3c6.65,1.91,9.78,8.96,12.37,15.02c7.53,17.63,1.22,26.27,7.95,33.57
	c6.94,7.53,22.74,8.19,28.27,1.77c5.28-6.12,0.45-17.78-7.07-35.34c-15.08-35.23-26.28-38.1-25.62-53.89
	c0.75-17.91,15.5-22.16,13.25-39.76c-1.8-14.06-12.69-22.93-15.02-24.74c-22.93-17.75-64.57-7.28-72.45,11.49
	C520.96,455.93,525.97,458.76,531.24,488.03z"/>
<path class="st0" d="M653.52,577.65c-7.66-8.37-12.36-21.79,7.77-113.22c5.47-24.83,8.92-37.93,19.74-42.3
	c10.75-4.35,24.29,1.79,32.43,8.46c18.1,14.83,11.82,34.2,22.56,87.43c7.92,39.24,17.26,58.08,8.46,64.86
	c-5.46,4.21-16.12,2.41-22.56-2.82c-15.78-12.82-1.98-42.8-15.51-50.76c-6.02-3.55-15.02-1.29-19.74,2.82
	c-0.47,0.41-0.91,0.84-1.31,1.35c-5.79,7.27-5.49,18.17-5.74,26.85c-0.39,13.71-0.69,24.17-5.64,26.79
	C668.83,589.84,659.19,583.84,653.52,577.65z"/>
<path class="st0" d="M780.78,567.35c1.79-11.24,1.49-20.19,1.18-29.48c0,0-0.34-10.21-1.7-19.78
	c-5.45-38.25-30.35-55.62-22.33-73.57c3.31-7.41,11.44-13,17.08-11.82c4.82,1,7.53,7.3,12.77,19.87
	c5.63,13.5,5.01,17.13,10.28,25.42c3.44,5.43,6.36,10.02,11.9,12.98c9.15,4.89,23.43,4.21,31.37-3.24
	c10.46-9.83,0.89-23.01,11.21-48.45c3.1-7.66,8.84-21.57,18.39-22.33c6.6-0.53,14.28,5.95,15.77,13.14
	c1.85,8.93-8.62,13.48-15.77,27.59c-6.03,11.92-5.93,22.76-5.8,35.47c0.07,7.28,0.89,16.29,12.37,53.87
	c9.91,32.41,13.98,41.03,9.2,45.98c-5.59,5.78-20.48,3.71-25.9-3.59c-3.71-5-0.51-9.13-0.99-26.35c-0.06-2.08-0.41-12.77-3.33-25.23
	c-2.83-12.05-5.29-22.53-10.82-23.58c-6.77-1.29-10.3,13.01-20.55,13.52c-10.39,0.51-16.8-13.68-21.63-11.36
	c-3.67,1.76-2.68,11.25-2.16,16.22c0.94,8.96,3.31,12.83,5.24,19.65c1.87,6.61,6.94,24.77-1.38,33.58
	c-6.87,7.27-22.45,6.98-26.73,0.79C776.04,583.16,778.75,580.15,780.78,567.35z"/>
<path d="M831.99,538.83"/>
<path d="M839.11,557.35"/>
<ellipse class="st1" cx="125.95" cy="447.52" rx="35.5" ry="46.04"/>
<ellipse class="st2" cx="543.72" cy="526.59" rx="36.29" ry="48.11"/>
<ellipse class="st1" cx="725.48" cy="465.6" rx="36.29" ry="48.11"/>
<ellipse class="st1" cx="358.37" cy="516.28" rx="36.29" ry="48.11"/>
<ellipse class="st2" cx="783.53" cy="565.87" rx="36.29" ry="48.11"/>
<ellipse class="st2" cx="445.15" cy="416.61" rx="36.29" ry="48.11"/>
<ellipse class="st1" cx="448.67" cy="570.14" rx="36.29" ry="48.11"/>
<ellipse class="st2" cx="674.26" cy="591.57" rx="36.29" ry="48.11"/>
<ellipse class="st2" cx="190.69" cy="534.79" rx="35.5" ry="46.04"/>
<ellipse class="st1" cx="111.11" cy="593.47" rx="35.5" ry="46.04"/>
<ellipse class="st2" cx="251.67" cy="437.12" rx="36.29" ry="48.11"/>
<ellipse class="st2" cx="290.52" cy="589.66" rx="36.29" ry="48.11"/>
<ellipse class="st2" cx="606.18" cy="408.43" rx="36.29" ry="48.11"/>
<ellipse class="st1" cx="888.1" cy="423.62" rx="36.29" ry="48.11"/>
</svg>
