<svg width="29.999999999999996" height="29.999999999999996" xmlns="http://www.w3.org/2000/svg">

 <g>
  <title>background</title>
  <rect fill="none" id="canvas_background" height="402" width="582" y="-1" x="-1"/>
 </g>
 <g>
  <title>Layer 1</title>
  <path id="svg_1" fill="#ffffff" d="m24.3,11.8c-0.1,-0.2 -0.4,-0.3 -0.6,-0.3c-0.3,0 -0.5,0.1 -0.6,0.3l-3.7,5.1l-2.1,-2.5c-0.1,-0.2 -0.4,-0.3 -0.6,-0.3c-0.2,0 -0.4,0.1 -0.6,0.3l-7.1,8.8c-0.3,0.3 -0.2,0.8 0.1,1.1c0.1,0.1 0.3,0.2 0.5,0.2c0.2,0 0.4,-0.1 0.6,-0.3l6.5,-8.1l2.2,2.6c0.1,0.2 0.4,0.3 0.6,0.3c0.2,0 0.4,-0.1 0.6,-0.3l3.6,-5l2.4,3.5c0.2,0.3 0.7,0.4 1,0.2c0.3,-0.2 0.4,-0.7 0.2,-1l-3,-4.6zm-18.8,-6.6l17.5,0c0.4,0 0.8,-0.3 0.8,-0.8s-0.4,-0.7 -0.8,-0.7l-17.5,0c-3.4,0 -5.4,2 -5.4,5.4l0,10.3c0,0.4 0.3,0.8 0.8,0.8s0.8,-0.3 0.8,-0.8l0,-10.3c-0.1,-2.6 1.2,-3.9 3.8,-3.9zm20.6,0.4l-20.1,0c-2.1,0 -3.8,1.7 -3.8,3.8l0,13.2c0,2.1 1.7,3.8 3.8,3.8l20.1,0c2.1,0 3.8,-1.7 3.8,-3.8l0,-13.2c0,-2.1 -1.7,-3.8 -3.8,-3.8zm2.3,17c0,1.2 -1,2.3 -2.3,2.3l-20.1,0c-1.2,0 -2.3,-1 -2.3,-2.3l0,-13.2c0,-1.2 1,-2.3 2.3,-2.3l20.1,0c1.2,0 2.3,1 2.3,2.3l0,13.2zm-15.7,-9.1c0,-1.6 -1.3,-3 -3,-3c-1.6,0 -3,1.3 -3,3c0,1.6 1.3,3 3,3c1.7,0 3,-1.4 3,-3zm-4.4,0c0,-0.8 0.7,-1.5 1.5,-1.5c0.8,0 1.5,0.7 1.5,1.5c0,0.8 -0.7,1.5 -1.5,1.5c-0.8,0 -1.5,-0.7 -1.5,-1.5z"/>
 </g>
</svg>